<svg width="1153" height="524" viewBox="0 0 1153 524" fill="none" xmlns="http://www.w3.org/2000/svg">
<g clip-path="url(#clip0_281_167077)">
<path opacity="0.11" d="M475.005 331.873C475.174 331.761 475.223 331.532 475.114 331.361C475.006 331.191 474.781 331.143 474.612 331.255C474.443 331.366 474.394 331.595 474.502 331.766C474.611 331.937 474.836 331.985 475.005 331.873Z" fill="#A6C9D4"/>
<path d="M477.419 333.115C477.588 333.003 477.637 332.774 477.528 332.604C477.42 332.433 477.195 332.385 477.026 332.497C476.857 332.609 476.808 332.838 476.917 333.008C477.025 333.179 477.25 333.227 477.419 333.115Z" fill="#A6C9D4"/>
<path d="M480.588 326.049C480.757 325.937 480.806 325.708 480.697 325.537C480.589 325.366 480.364 325.319 480.195 325.43C480.026 325.542 479.977 325.771 480.085 325.942C480.194 326.113 480.419 326.16 480.588 326.049Z" fill="#A6C9D4"/>
<path d="M466.483 334.904C466.652 334.792 466.701 334.563 466.592 334.393C466.483 334.222 466.258 334.174 466.089 334.286C465.92 334.398 465.871 334.627 465.98 334.797C466.089 334.968 466.314 335.016 466.483 334.904Z" fill="#A6C9D4"/>
<path opacity="0.11" d="M460.748 344.144C460.917 344.033 460.966 343.804 460.858 343.633C460.749 343.462 460.524 343.414 460.355 343.526C460.186 343.638 460.137 343.867 460.246 344.038C460.354 344.208 460.579 344.256 460.748 344.144Z" fill="#A6C9D4"/>
<path d="M521.414 335.224C521.499 335.168 521.523 335.053 521.469 334.968C521.415 334.883 521.302 334.859 521.217 334.914C521.133 334.97 521.109 335.085 521.163 335.17C521.217 335.256 521.33 335.28 521.414 335.224Z" fill="#A6C9D4"/>
<path d="M479.026 338.92C479.195 338.808 479.244 338.579 479.135 338.408C479.026 338.238 478.801 338.19 478.632 338.302C478.463 338.413 478.414 338.642 478.523 338.813C478.632 338.984 478.857 339.032 479.026 338.92Z" fill="#A6C9D4"/>
<path d="M514.657 315.351C514.826 315.24 514.874 315.011 514.766 314.84C514.657 314.669 514.432 314.621 514.263 314.733C514.094 314.845 514.045 315.074 514.154 315.245C514.263 315.415 514.488 315.463 514.657 315.351Z" fill="#A6C9D4"/>
<path d="M526.742 294.572C526.911 294.46 526.959 294.231 526.851 294.061C526.742 293.89 526.517 293.842 526.348 293.954C526.179 294.066 526.13 294.295 526.239 294.465C526.347 294.636 526.573 294.684 526.742 294.572Z" fill="#A6C9D4"/>
<path d="M540.86 302.515C541.029 302.404 541.078 302.175 540.969 302.004C540.86 301.833 540.635 301.785 540.466 301.897C540.297 302.009 540.248 302.238 540.357 302.409C540.466 302.579 540.691 302.627 540.86 302.515Z" fill="#A6C9D4"/>
<path opacity="0.11" d="M455.594 345.894C455.763 345.783 455.812 345.554 455.703 345.383C455.595 345.212 455.369 345.164 455.2 345.276C455.032 345.388 454.983 345.617 455.091 345.788C455.2 345.958 455.425 346.006 455.594 345.894Z" fill="#A6C9D4"/>
<path opacity="0.11" d="M482.518 345.135C482.687 345.023 482.736 344.794 482.627 344.623C482.518 344.452 482.293 344.405 482.124 344.516C481.955 344.628 481.906 344.857 482.015 345.028C482.124 345.199 482.349 345.246 482.518 345.135Z" fill="#A6C9D4"/>
<path opacity="0.11" d="M512.836 322.707C513.005 322.595 513.054 322.366 512.945 322.195C512.837 322.025 512.612 321.977 512.443 322.089C512.274 322.2 512.225 322.429 512.334 322.6C512.442 322.771 512.667 322.819 512.836 322.707Z" fill="#A6C9D4"/>
<path d="M524.406 320.222C524.49 320.166 524.515 320.051 524.46 319.966C524.406 319.881 524.293 319.857 524.209 319.912C524.124 319.968 524.1 320.083 524.154 320.168C524.209 320.254 524.321 320.278 524.406 320.222Z" fill="#A6C9D4"/>
<path d="M483.635 310.773C483.804 310.662 483.853 310.433 483.744 310.262C483.636 310.091 483.41 310.043 483.241 310.155C483.073 310.267 483.024 310.496 483.132 310.667C483.241 310.837 483.466 310.885 483.635 310.773Z" fill="#A6C9D4"/>
<path d="M457.323 350.435C457.492 350.324 457.54 350.095 457.432 349.924C457.323 349.753 457.098 349.705 456.929 349.817C456.76 349.929 456.711 350.158 456.82 350.329C456.929 350.499 457.154 350.547 457.323 350.435Z" fill="#A6C9D4"/>
<path opacity="0.3" d="M464.167 329.808C464.336 329.697 464.385 329.468 464.276 329.297C464.168 329.126 463.943 329.078 463.774 329.19C463.605 329.302 463.556 329.531 463.665 329.702C463.773 329.872 463.998 329.92 464.167 329.808Z" fill="#A6C9D4"/>
<path opacity="0.3" d="M462.118 351.764C462.286 351.652 462.335 351.423 462.227 351.252C462.118 351.081 461.893 351.033 461.724 351.145C461.555 351.257 461.506 351.486 461.615 351.657C461.723 351.828 461.949 351.875 462.118 351.764Z" fill="#A6C9D4"/>
<path opacity="0.3" d="M532.896 290.736C533.065 290.624 533.114 290.395 533.005 290.225C532.896 290.054 532.671 290.006 532.502 290.118C532.333 290.23 532.284 290.459 532.393 290.629C532.502 290.8 532.727 290.848 532.896 290.736Z" fill="#A6C9D4"/>
<path opacity="0.11" d="M502.232 301.31C502.401 301.199 502.45 300.97 502.341 300.799C502.232 300.628 502.007 300.58 501.838 300.692C501.669 300.804 501.62 301.033 501.729 301.204C501.838 301.374 502.063 301.422 502.232 301.31Z" fill="#A6C9D4"/>
<path opacity="0.11" d="M533.043 300.82C533.212 300.708 533.261 300.479 533.152 300.309C533.044 300.138 532.819 300.09 532.65 300.202C532.481 300.314 532.432 300.543 532.541 300.713C532.649 300.884 532.874 300.932 533.043 300.82Z" fill="#A6C9D4"/>
<path opacity="0.3" d="M492.273 329.445C492.442 329.333 492.491 329.104 492.382 328.934C492.273 328.763 492.048 328.715 491.879 328.827C491.71 328.939 491.661 329.168 491.77 329.338C491.879 329.509 492.104 329.557 492.273 329.445Z" fill="#A6C9D4"/>
<path opacity="0.11" d="M498.735 318.07C498.904 317.958 498.953 317.729 498.844 317.559C498.735 317.388 498.51 317.34 498.341 317.452C498.172 317.564 498.123 317.793 498.232 317.963C498.341 318.134 498.566 318.182 498.735 318.07Z" fill="#A6C9D4"/>
<path d="M495.129 312.404C495.298 312.292 495.347 312.063 495.238 311.893C495.13 311.722 494.905 311.674 494.736 311.786C494.567 311.898 494.518 312.127 494.626 312.297C494.735 312.468 494.96 312.516 495.129 312.404Z" fill="#A6C9D4"/>
<path d="M494.989 337.359C495.158 337.247 495.206 337.018 495.098 336.848C494.989 336.677 494.764 336.629 494.595 336.741C494.426 336.853 494.377 337.082 494.486 337.252C494.595 337.423 494.82 337.471 494.989 337.359Z" fill="#A6C9D4"/>
<path d="M551.37 304.795C551.539 304.683 551.588 304.454 551.48 304.283C551.371 304.113 551.146 304.065 550.977 304.177C550.808 304.288 550.759 304.517 550.868 304.688C550.976 304.859 551.202 304.907 551.37 304.795Z" fill="#A6C9D4"/>
<path d="M510.042 327.406C509.908 327.557 509.92 327.791 510.07 327.928C510.219 328.065 510.448 328.053 510.582 327.902C510.716 327.75 510.704 327.516 510.555 327.379C510.406 327.242 510.176 327.254 510.042 327.406Z" fill="#A6C9D4"/>
<path d="M489.406 320.928C489.575 320.816 489.623 320.587 489.515 320.416C489.406 320.245 489.181 320.198 489.012 320.309C488.843 320.421 488.794 320.65 488.903 320.821C489.012 320.992 489.237 321.039 489.406 320.928Z" fill="#A6C9D4"/>
<path d="M468.814 352.064C468.983 351.953 469.032 351.724 468.923 351.553C468.814 351.382 468.589 351.334 468.42 351.446C468.251 351.558 468.202 351.787 468.311 351.958C468.42 352.128 468.645 352.176 468.814 352.064Z" fill="#A6C9D4"/>
<path d="M514.563 331.984C514.732 331.872 514.781 331.643 514.672 331.473C514.563 331.302 514.338 331.254 514.169 331.366C514 331.478 513.951 331.707 514.06 331.878C514.169 332.048 514.394 332.096 514.563 331.984Z" fill="#A6C9D4"/>
<path d="M550.661 292.004C550.83 291.892 550.879 291.663 550.771 291.492C550.662 291.322 550.437 291.274 550.268 291.386C550.099 291.497 550.05 291.726 550.159 291.897C550.267 292.068 550.493 292.116 550.661 292.004Z" fill="#A6C9D4"/>
<path d="M485.343 311.007C485.209 311.159 485.221 311.393 485.37 311.53C485.519 311.667 485.749 311.655 485.883 311.503C486.017 311.351 486.005 311.117 485.856 310.98C485.707 310.843 485.477 310.855 485.343 311.007Z" fill="#A6C9D4"/>
<path d="M578.749 289.248C578.918 289.136 578.967 288.907 578.858 288.736C578.75 288.566 578.525 288.518 578.356 288.63C578.187 288.741 578.138 288.97 578.247 289.141C578.355 289.312 578.58 289.36 578.749 289.248Z" fill="#A6C9D4"/>
<path d="M490.174 321.857C490.04 322.008 490.052 322.242 490.201 322.379C490.351 322.516 490.58 322.505 490.714 322.353C490.848 322.201 490.836 321.967 490.687 321.83C490.538 321.693 490.308 321.705 490.174 321.857Z" fill="#A6C9D4"/>
<path opacity="0.3" d="M508.531 303.537C508.7 303.425 508.748 303.196 508.64 303.025C508.531 302.855 508.306 302.807 508.137 302.919C507.968 303.03 507.919 303.259 508.028 303.43C508.137 303.601 508.362 303.649 508.531 303.537Z" fill="#A6C9D4"/>
<path d="M491.802 291.713C491.971 291.601 492.02 291.372 491.911 291.201C491.803 291.031 491.577 290.983 491.408 291.094C491.24 291.206 491.191 291.435 491.299 291.606C491.408 291.777 491.633 291.825 491.802 291.713Z" fill="#A6C9D4"/>
<path d="M519.469 301.75C519.638 301.638 519.687 301.409 519.578 301.238C519.47 301.068 519.244 301.02 519.075 301.132C518.907 301.243 518.858 301.472 518.966 301.643C519.075 301.814 519.3 301.862 519.469 301.75Z" fill="#A6C9D4"/>
<path opacity="0.3" d="M523.071 289.896C523.24 289.785 523.288 289.556 523.18 289.385C523.071 289.214 522.846 289.166 522.677 289.278C522.508 289.39 522.459 289.619 522.568 289.79C522.677 289.96 522.902 290.008 523.071 289.896Z" fill="#A6C9D4"/>
<path opacity="0.3" d="M546.783 291.019C546.952 290.908 547 290.679 546.892 290.508C546.783 290.337 546.558 290.289 546.389 290.401C546.22 290.513 546.171 290.742 546.28 290.913C546.389 291.083 546.614 291.131 546.783 291.019Z" fill="#A6C9D4"/>
<path opacity="0.3" d="M489.338 310.935C489.204 311.087 489.216 311.321 489.365 311.458C489.515 311.595 489.744 311.583 489.878 311.431C490.012 311.279 490 311.045 489.851 310.908C489.702 310.771 489.472 310.783 489.338 310.935Z" fill="#A6C9D4"/>
<path opacity="0.3" d="M527.871 304.002C528.04 303.89 528.089 303.661 527.981 303.49C527.872 303.32 527.647 303.272 527.478 303.384C527.309 303.495 527.26 303.724 527.369 303.895C527.477 304.066 527.702 304.114 527.871 304.002Z" fill="#A6C9D4"/>
<path opacity="0.11" d="M536.9 290.453C537.069 290.341 537.118 290.112 537.009 289.941C536.9 289.771 536.675 289.723 536.506 289.835C536.337 289.946 536.288 290.176 536.397 290.346C536.506 290.517 536.731 290.565 536.9 290.453Z" fill="#A6C9D4"/>
<path opacity="0.11" d="M577.565 301.127C577.734 301.015 577.783 300.786 577.674 300.615C577.565 300.445 577.34 300.397 577.171 300.509C577.002 300.62 576.953 300.849 577.062 301.02C577.171 301.191 577.396 301.239 577.565 301.127Z" fill="#A6C9D4"/>
<path opacity="0.11" d="M523.429 324.033C523.349 324.124 523.356 324.265 523.446 324.347C523.535 324.429 523.673 324.422 523.754 324.331C523.834 324.24 523.827 324.099 523.737 324.017C523.648 323.935 523.51 323.942 523.429 324.033Z" fill="#A6C9D4"/>
<path d="M579.98 302.367C580.149 302.255 580.198 302.026 580.089 301.856C579.98 301.685 579.755 301.637 579.586 301.749C579.417 301.861 579.368 302.09 579.477 302.26C579.586 302.431 579.811 302.479 579.98 302.367Z" fill="#A6C9D4"/>
<path d="M520.781 323.469C520.7 323.56 520.708 323.7 520.797 323.783C520.887 323.865 521.025 323.858 521.105 323.766C521.186 323.675 521.178 323.535 521.089 323.453C520.999 323.37 520.862 323.378 520.781 323.469Z" fill="#A6C9D4"/>
<path d="M569.042 304.16C569.211 304.048 569.26 303.819 569.151 303.649C569.043 303.478 568.818 303.43 568.649 303.542C568.48 303.654 568.431 303.883 568.54 304.053C568.648 304.224 568.873 304.272 569.042 304.16Z" fill="#A6C9D4"/>
<path d="M530.891 318.853C530.811 318.945 530.818 319.085 530.908 319.167C530.997 319.25 531.135 319.242 531.216 319.151C531.296 319.06 531.289 318.92 531.199 318.837C531.11 318.755 530.972 318.762 530.891 318.853Z" fill="#A6C9D4"/>
<path opacity="0.11" d="M563.308 313.394C563.477 313.283 563.526 313.054 563.417 312.883C563.308 312.712 563.083 312.664 562.914 312.776C562.745 312.888 562.697 313.117 562.805 313.288C562.914 313.458 563.139 313.506 563.308 313.394Z" fill="#A6C9D4"/>
<path opacity="0.11" d="M534.084 308.422C534.003 308.513 534.011 308.653 534.1 308.736C534.19 308.818 534.327 308.811 534.408 308.72C534.488 308.629 534.481 308.488 534.392 308.406C534.302 308.324 534.164 308.331 534.084 308.422Z" fill="#A6C9D4"/>
<path d="M558.247 312.008C558.416 311.896 558.465 311.667 558.357 311.496C558.248 311.325 558.023 311.278 557.854 311.389C557.685 311.501 557.636 311.73 557.745 311.901C557.853 312.072 558.078 312.119 558.247 312.008Z" fill="#A6C9D4"/>
<path d="M539.326 308.424C539.245 308.515 539.253 308.655 539.342 308.738C539.432 308.82 539.57 308.813 539.65 308.722C539.731 308.63 539.723 308.49 539.634 308.408C539.544 308.326 539.406 308.333 539.326 308.424Z" fill="#A6C9D4"/>
<path d="M524.508 340.01C524.677 339.898 524.726 339.669 524.617 339.498C524.509 339.327 524.284 339.28 524.115 339.391C523.946 339.503 523.897 339.732 524.005 339.903C524.114 340.074 524.339 340.121 524.508 340.01Z" fill="#A6C9D4"/>
<path opacity="0.11" d="M516.33 332.635C516.499 332.523 516.548 332.294 516.44 332.123C516.331 331.952 516.106 331.905 515.937 332.016C515.768 332.128 515.719 332.357 515.828 332.528C515.936 332.699 516.161 332.746 516.33 332.635Z" fill="#A6C9D4"/>
<path opacity="0.11" d="M511.743 341.115C511.911 341.003 511.96 340.774 511.852 340.604C511.743 340.433 511.518 340.385 511.349 340.497C511.18 340.609 511.131 340.838 511.24 341.008C511.348 341.179 511.574 341.227 511.743 341.115Z" fill="#A6C9D4"/>
<path opacity="0.11" d="M523.498 347.545C523.667 347.433 523.716 347.204 523.608 347.033C523.499 346.863 523.274 346.815 523.105 346.927C522.936 347.038 522.887 347.267 522.996 347.438C523.104 347.609 523.329 347.657 523.498 347.545Z" fill="#A6C9D4"/>
<path opacity="0.11" d="M558.154 315.148C558.323 315.037 558.371 314.808 558.263 314.637C558.154 314.466 557.929 314.418 557.76 314.53C557.591 314.642 557.542 314.871 557.651 315.042C557.76 315.212 557.985 315.26 558.154 315.148Z" fill="#A6C9D4"/>
<path opacity="0.11" d="M538.619 305.365C538.538 305.456 538.546 305.597 538.635 305.679C538.725 305.761 538.863 305.754 538.943 305.663C539.024 305.572 539.016 305.431 538.927 305.349C538.837 305.267 538.699 305.274 538.619 305.365Z" fill="#A6C9D4"/>
<path opacity="0.3" d="M529.374 330.869C529.543 330.757 529.592 330.528 529.484 330.358C529.375 330.187 529.15 330.139 528.981 330.251C528.812 330.363 528.763 330.592 528.872 330.762C528.98 330.933 529.205 330.981 529.374 330.869Z" fill="#A6C9D4"/>
<path d="M561.239 297.01C561.408 296.898 561.456 296.669 561.348 296.498C561.239 296.327 561.014 296.28 560.845 296.391C560.676 296.503 560.627 296.732 560.736 296.903C560.845 297.074 561.07 297.121 561.239 297.01Z" fill="#A6C9D4"/>
<path d="M540.244 323.701C540.163 323.792 540.171 323.933 540.26 324.015C540.35 324.097 540.488 324.09 540.568 323.999C540.649 323.908 540.641 323.767 540.552 323.685C540.462 323.603 540.324 323.61 540.244 323.701Z" fill="#A6C9D4"/>
<path d="M559.882 319.689C560.051 319.578 560.1 319.349 559.991 319.178C559.883 319.007 559.658 318.959 559.489 319.071C559.32 319.183 559.271 319.412 559.379 319.583C559.488 319.753 559.713 319.801 559.882 319.689Z" fill="#A6C9D4"/>
<path d="M432.698 337.972C432.563 338.124 432.576 338.358 432.725 338.495C432.874 338.632 433.104 338.62 433.238 338.468C433.372 338.316 433.36 338.082 433.21 337.945C433.061 337.808 432.832 337.82 432.698 337.972Z" fill="#A6C9D4"/>
<path opacity="0.3" d="M548.441 327.256C548.61 327.144 548.659 326.915 548.55 326.744C548.441 326.573 548.216 326.526 548.047 326.637C547.878 326.749 547.829 326.978 547.938 327.149C548.047 327.32 548.272 327.368 548.441 327.256Z" fill="#A6C9D4"/>
<path opacity="0.3" d="M478.536 276.372C478.402 276.524 478.415 276.758 478.564 276.895C478.713 277.032 478.942 277.02 479.077 276.868C479.211 276.717 479.198 276.483 479.049 276.346C478.9 276.209 478.67 276.221 478.536 276.372Z" fill="#A6C9D4"/>
<path opacity="0.11" d="M528.466 325.793C528.635 325.681 528.684 325.452 528.575 325.281C528.467 325.111 528.242 325.063 528.073 325.175C527.904 325.286 527.855 325.515 527.963 325.686C528.072 325.857 528.297 325.905 528.466 325.793Z" fill="#A6C9D4"/>
<path opacity="0.3" d="M566.727 299.06C566.896 298.949 566.945 298.72 566.836 298.549C566.727 298.378 566.502 298.33 566.333 298.442C566.164 298.554 566.115 298.783 566.224 298.954C566.333 299.124 566.558 299.172 566.727 299.06Z" fill="#A6C9D4"/>
<path opacity="0.3" d="M566.727 279.06C566.896 278.949 566.945 278.72 566.836 278.549C566.727 278.378 566.502 278.33 566.333 278.442C566.164 278.554 566.115 278.783 566.224 278.954C566.333 279.124 566.558 279.172 566.727 279.06Z" fill="#A6C9D4"/>
<path opacity="0.3" d="M468.502 308.564C468.448 308.625 468.453 308.718 468.513 308.773C468.573 308.828 468.665 308.823 468.718 308.762C468.772 308.702 468.767 308.608 468.707 308.553C468.648 308.498 468.556 308.503 468.502 308.564Z" fill="#A6C9D4"/>
<path opacity="0.3" d="M564.258 320.766C564.325 320.722 564.345 320.63 564.301 320.561C564.258 320.493 564.168 320.474 564.1 320.519C564.032 320.563 564.013 320.655 564.056 320.723C564.1 320.792 564.19 320.811 564.258 320.766Z" fill="#A6C9D4"/>
<path opacity="0.3" d="M464.907 286.816C464.854 286.876 464.859 286.97 464.918 287.025C464.978 287.08 465.07 287.075 465.124 287.014C465.177 286.954 465.172 286.86 465.113 286.805C465.053 286.75 464.961 286.755 464.907 286.816Z" fill="#A6C9D4"/>
<path opacity="0.3" d="M545.542 335.514C545.609 335.47 545.629 335.378 545.585 335.31C545.542 335.241 545.452 335.222 545.384 335.267C545.317 335.311 545.297 335.403 545.341 335.471C545.384 335.54 545.474 335.559 545.542 335.514Z" fill="#A6C9D4"/>
<path opacity="0.3" d="M533.696 327.487C533.764 327.442 533.783 327.351 533.74 327.282C533.696 327.214 533.606 327.195 533.538 327.239C533.471 327.284 533.451 327.376 533.495 327.444C533.538 327.512 533.628 327.532 533.696 327.487Z" fill="#A6C9D4"/>
<path d="M545.635 341.133C545.703 341.089 545.723 340.997 545.679 340.929C545.636 340.86 545.545 340.841 545.478 340.886C545.41 340.931 545.391 341.022 545.434 341.091C545.478 341.159 545.568 341.178 545.635 341.133Z" fill="#A6C9D4"/>
<path d="M521.461 351.678C521.528 351.634 521.548 351.542 521.504 351.474C521.461 351.405 521.371 351.386 521.303 351.431C521.235 351.475 521.216 351.567 521.259 351.635C521.303 351.704 521.393 351.723 521.461 351.678Z" fill="#A6C9D4"/>
<path d="M514.438 346.858C514.506 346.813 514.525 346.722 514.482 346.653C514.438 346.585 514.348 346.566 514.281 346.61C514.213 346.655 514.193 346.747 514.237 346.815C514.281 346.884 514.371 346.903 514.438 346.858Z" fill="#A6C9D4"/>
<path d="M570.955 321.067C571.022 321.022 571.042 320.931 570.998 320.862C570.955 320.794 570.865 320.775 570.797 320.819C570.73 320.864 570.71 320.956 570.754 321.024C570.797 321.093 570.887 321.112 570.955 321.067Z" fill="#A6C9D4"/>
<path d="M458.361 288.288C458.308 288.349 458.313 288.443 458.372 288.498C458.432 288.552 458.524 288.548 458.578 288.487C458.631 288.426 458.626 288.333 458.567 288.278C458.507 288.223 458.415 288.228 458.361 288.288Z" fill="#A6C9D4"/>
<path opacity="0.3" d="M538.003 337.895C538.07 337.85 538.09 337.759 538.046 337.69C538.003 337.622 537.913 337.603 537.845 337.648C537.777 337.692 537.758 337.784 537.801 337.852C537.845 337.921 537.935 337.94 538.003 337.895Z" fill="#A6C9D4"/>
<path opacity="0.3" d="M518.927 337.493C518.995 337.448 519.015 337.356 518.971 337.288C518.928 337.22 518.837 337.201 518.77 337.245C518.702 337.29 518.683 337.382 518.726 337.45C518.77 337.518 518.86 337.537 518.927 337.493Z" fill="#A6C9D4"/>
<path opacity="0.3" d="M538.694 316.366C538.762 316.321 538.781 316.229 538.738 316.161C538.694 316.093 538.604 316.074 538.536 316.118C538.469 316.163 538.449 316.255 538.493 316.323C538.536 316.391 538.626 316.411 538.694 316.366Z" fill="#A6C9D4"/>
<path opacity="0.11" d="M532.16 315.956C532.227 315.911 532.247 315.819 532.203 315.751C532.16 315.683 532.07 315.663 532.002 315.708C531.935 315.753 531.915 315.844 531.959 315.913C532.002 315.981 532.092 316 532.16 315.956Z" fill="#A6C9D4"/>
<path opacity="0.3" d="M559.527 334.724C559.561 334.702 559.57 334.656 559.549 334.622C559.527 334.587 559.482 334.578 559.448 334.6C559.414 334.623 559.404 334.668 559.426 334.703C559.448 334.737 559.493 334.746 559.527 334.724Z" fill="#A6C9D4"/>
<path d="M569.822 327.911C569.855 327.889 569.865 327.843 569.843 327.809C569.822 327.775 569.777 327.765 569.743 327.788C569.709 327.81 569.699 327.856 569.721 327.89C569.743 327.924 569.788 327.934 569.822 327.911Z" fill="#A6C9D4"/>
<path d="M502.878 289.971C502.852 290.002 502.854 290.049 502.884 290.076C502.914 290.103 502.96 290.101 502.987 290.071C503.013 290.04 503.011 289.993 502.981 289.966C502.951 289.939 502.905 289.941 502.878 289.971Z" fill="#A6C9D4"/>
<path opacity="0.11" d="M416.501 357.531C416.639 357.439 416.679 357.253 416.59 357.113C416.501 356.974 416.318 356.935 416.18 357.026C416.042 357.118 416.003 357.304 416.091 357.444C416.18 357.583 416.363 357.622 416.501 357.531Z" fill="#A6C9D4"/>
<path d="M418.471 358.544C418.609 358.453 418.648 358.266 418.56 358.127C418.471 357.988 418.288 357.949 418.15 358.04C418.012 358.131 417.972 358.318 418.061 358.457C418.15 358.596 418.333 358.635 418.471 358.544Z" fill="#A6C9D4"/>
<path d="M421.055 352.783C421.193 352.691 421.232 352.505 421.144 352.365C421.055 352.226 420.872 352.187 420.734 352.278C420.596 352.369 420.556 352.556 420.645 352.695C420.734 352.835 420.917 352.874 421.055 352.783Z" fill="#A6C9D4"/>
<path d="M409.552 360.003C409.69 359.912 409.73 359.725 409.641 359.586C409.552 359.447 409.369 359.408 409.231 359.499C409.093 359.59 409.053 359.777 409.142 359.916C409.231 360.055 409.414 360.094 409.552 360.003Z" fill="#A6C9D4"/>
<path opacity="0.11" d="M404.876 367.54C405.014 367.449 405.054 367.262 404.965 367.123C404.876 366.984 404.693 366.945 404.555 367.036C404.417 367.127 404.378 367.314 404.466 367.453C404.555 367.592 404.738 367.631 404.876 367.54Z" fill="#A6C9D4"/>
<path d="M400.749 366.408C400.887 366.316 400.927 366.13 400.838 365.99C400.75 365.851 400.566 365.812 400.428 365.903C400.29 365.994 400.251 366.181 400.339 366.32C400.428 366.46 400.611 366.499 400.749 366.408Z" fill="#A6C9D4"/>
<path d="M419.78 363.279C419.918 363.187 419.958 363.001 419.869 362.861C419.781 362.722 419.597 362.683 419.459 362.774C419.322 362.866 419.282 363.052 419.37 363.192C419.459 363.331 419.643 363.37 419.78 363.279Z" fill="#A6C9D4"/>
<path d="M448.836 344.058C448.974 343.967 449.014 343.78 448.925 343.641C448.836 343.502 448.653 343.463 448.515 343.554C448.377 343.645 448.337 343.832 448.426 343.971C448.515 344.11 448.698 344.149 448.836 344.058Z" fill="#A6C9D4"/>
<path d="M458.692 327.115C458.829 327.023 458.869 326.837 458.781 326.697C458.692 326.558 458.508 326.519 458.371 326.61C458.233 326.701 458.193 326.888 458.282 327.027C458.37 327.167 458.554 327.206 458.692 327.115Z" fill="#A6C9D4"/>
<path d="M470.204 333.593C470.342 333.502 470.382 333.315 470.293 333.176C470.205 333.037 470.021 332.998 469.883 333.089C469.745 333.18 469.706 333.367 469.794 333.506C469.883 333.645 470.066 333.684 470.204 333.593Z" fill="#A6C9D4"/>
<path opacity="0.11" d="M400.673 368.966C400.811 368.875 400.851 368.688 400.762 368.549C400.673 368.41 400.49 368.371 400.352 368.462C400.214 368.553 400.174 368.74 400.263 368.879C400.352 369.018 400.535 369.057 400.673 368.966Z" fill="#A6C9D4"/>
<path opacity="0.11" d="M422.628 368.347C422.766 368.256 422.806 368.069 422.717 367.93C422.628 367.791 422.445 367.752 422.307 367.843C422.169 367.934 422.129 368.121 422.218 368.26C422.307 368.399 422.49 368.438 422.628 368.347Z" fill="#A6C9D4"/>
<path opacity="0.11" d="M447.353 350.058C447.49 349.967 447.53 349.78 447.442 349.641C447.353 349.502 447.17 349.463 447.032 349.554C446.894 349.645 446.854 349.832 446.943 349.971C447.031 350.11 447.215 350.149 447.353 350.058Z" fill="#A6C9D4"/>
<path d="M403.188 354.173C403.325 354.082 403.365 353.895 403.277 353.756C403.188 353.617 403.004 353.578 402.867 353.669C402.729 353.76 402.689 353.947 402.778 354.086C402.866 354.225 403.05 354.264 403.188 354.173Z" fill="#A6C9D4"/>
<path d="M423.539 340.325C423.677 340.234 423.717 340.048 423.628 339.908C423.54 339.769 423.356 339.73 423.218 339.821C423.08 339.912 423.041 340.099 423.129 340.238C423.218 340.378 423.401 340.417 423.539 340.325Z" fill="#A6C9D4"/>
<path d="M402.082 372.667C402.22 372.576 402.26 372.389 402.171 372.25C402.083 372.111 401.899 372.072 401.761 372.163C401.623 372.254 401.584 372.441 401.672 372.58C401.761 372.719 401.944 372.758 402.082 372.667Z" fill="#A6C9D4"/>
<path opacity="0.3" d="M407.663 355.847C407.801 355.756 407.841 355.569 407.752 355.43C407.664 355.291 407.48 355.252 407.342 355.343C407.204 355.434 407.165 355.621 407.253 355.76C407.342 355.899 407.525 355.938 407.663 355.847Z" fill="#A6C9D4"/>
<path opacity="0.3" d="M405.992 373.751C406.13 373.66 406.17 373.473 406.081 373.334C405.993 373.195 405.809 373.156 405.671 373.247C405.534 373.338 405.494 373.525 405.582 373.664C405.671 373.803 405.855 373.842 405.992 373.751Z" fill="#A6C9D4"/>
<path opacity="0.3" d="M463.71 323.986C463.848 323.894 463.888 323.708 463.799 323.569C463.71 323.429 463.527 323.39 463.389 323.481C463.251 323.573 463.212 323.759 463.3 323.899C463.389 324.038 463.572 324.077 463.71 323.986Z" fill="#A6C9D4"/>
<path opacity="0.11" d="M438.705 332.611C438.843 332.519 438.883 332.333 438.794 332.193C438.706 332.054 438.522 332.015 438.384 332.106C438.246 332.198 438.207 332.384 438.295 332.524C438.384 332.663 438.567 332.702 438.705 332.611Z" fill="#A6C9D4"/>
<path opacity="0.11" d="M463.83 332.21C463.968 332.119 464.008 331.932 463.919 331.793C463.831 331.654 463.647 331.615 463.509 331.706C463.371 331.797 463.332 331.984 463.42 332.123C463.509 332.262 463.692 332.301 463.83 332.21Z" fill="#A6C9D4"/>
<path opacity="0.3" d="M430.583 355.554C430.721 355.463 430.761 355.276 430.672 355.137C430.584 354.998 430.4 354.959 430.262 355.05C430.124 355.141 430.085 355.328 430.173 355.467C430.262 355.606 430.445 355.645 430.583 355.554Z" fill="#A6C9D4"/>
<path opacity="0.11" d="M435.853 346.277C435.99 346.185 436.03 345.999 435.942 345.86C435.853 345.72 435.67 345.681 435.532 345.772C435.394 345.864 435.354 346.05 435.443 346.19C435.531 346.329 435.715 346.368 435.853 346.277Z" fill="#A6C9D4"/>
<path d="M432.912 341.656C433.05 341.564 433.09 341.378 433.001 341.238C432.913 341.099 432.729 341.06 432.591 341.151C432.453 341.243 432.414 341.429 432.502 341.568C432.591 341.708 432.774 341.747 432.912 341.656Z" fill="#A6C9D4"/>
<path d="M432.798 362.005C432.936 361.914 432.976 361.727 432.887 361.588C432.798 361.449 432.615 361.41 432.477 361.501C432.339 361.592 432.299 361.779 432.388 361.918C432.477 362.057 432.66 362.096 432.798 362.005Z" fill="#A6C9D4"/>
<path d="M478.776 335.45C478.913 335.359 478.953 335.173 478.865 335.033C478.776 334.894 478.592 334.855 478.455 334.946C478.317 335.037 478.277 335.224 478.366 335.363C478.454 335.503 478.638 335.542 478.776 335.45Z" fill="#A6C9D4"/>
<path d="M421.724 330.595C421.614 330.719 421.624 330.909 421.746 331.021C421.868 331.133 422.055 331.123 422.164 330.999C422.274 330.876 422.264 330.685 422.142 330.573C422.02 330.461 421.833 330.471 421.724 330.595Z" fill="#A6C9D4"/>
<path d="M428.244 348.607C428.382 348.516 428.422 348.329 428.333 348.19C428.245 348.05 428.061 348.011 427.923 348.103C427.786 348.194 427.746 348.38 427.834 348.52C427.923 348.659 428.107 348.698 428.244 348.607Z" fill="#A6C9D4"/>
<path d="M411.453 373.999C411.591 373.908 411.631 373.721 411.542 373.582C411.454 373.443 411.27 373.404 411.132 373.495C410.995 373.586 410.955 373.773 411.043 373.912C411.132 374.051 411.316 374.09 411.453 373.999Z" fill="#A6C9D4"/>
<path d="M448.76 357.624C448.898 357.533 448.938 357.346 448.849 357.207C448.76 357.068 448.577 357.029 448.439 357.12C448.301 357.211 448.261 357.398 448.35 357.537C448.439 357.676 448.622 357.715 448.76 357.624Z" fill="#A6C9D4"/>
<path d="M478.197 325.019C478.335 324.928 478.375 324.741 478.286 324.602C478.198 324.462 478.014 324.423 477.876 324.515C477.739 324.606 477.699 324.793 477.787 324.932C477.876 325.071 478.06 325.11 478.197 325.019Z" fill="#A6C9D4"/>
<path d="M424.932 340.517C424.823 340.64 424.832 340.831 424.954 340.943C425.076 341.055 425.263 341.045 425.372 340.921C425.482 340.798 425.472 340.607 425.35 340.495C425.228 340.383 425.041 340.393 424.932 340.517Z" fill="#A6C9D4"/>
<path d="M476.638 315.433C476.776 315.342 476.815 315.155 476.727 315.016C476.638 314.877 476.455 314.838 476.317 314.929C476.179 315.02 476.139 315.207 476.228 315.346C476.317 315.485 476.5 315.524 476.638 315.433Z" fill="#A6C9D4"/>
<path d="M428.871 349.364C428.762 349.488 428.772 349.679 428.894 349.791C429.015 349.902 429.202 349.893 429.312 349.769C429.421 349.645 429.411 349.454 429.29 349.343C429.168 349.231 428.981 349.241 428.871 349.364Z" fill="#A6C9D4"/>
<path opacity="0.3" d="M443.841 334.425C443.979 334.334 444.019 334.147 443.93 334.008C443.841 333.869 443.658 333.83 443.52 333.921C443.382 334.012 443.342 334.199 443.431 334.338C443.52 334.477 443.703 334.516 443.841 334.425Z" fill="#A6C9D4"/>
<path d="M430.199 324.783C430.337 324.691 430.377 324.505 430.288 324.365C430.2 324.226 430.016 324.187 429.878 324.278C429.741 324.369 429.701 324.556 429.789 324.695C429.878 324.835 430.062 324.874 430.199 324.783Z" fill="#A6C9D4"/>
<path d="M452.761 332.966C452.899 332.875 452.939 332.688 452.85 332.549C452.761 332.41 452.578 332.371 452.44 332.462C452.302 332.553 452.262 332.74 452.351 332.879C452.44 333.018 452.623 333.057 452.761 332.966Z" fill="#A6C9D4"/>
<path opacity="0.3" d="M455.698 323.3C455.836 323.209 455.876 323.022 455.787 322.883C455.699 322.744 455.515 322.705 455.377 322.796C455.24 322.887 455.2 323.074 455.288 323.213C455.377 323.352 455.561 323.391 455.698 323.3Z" fill="#A6C9D4"/>
<path opacity="0.3" d="M475.034 324.216C475.172 324.125 475.212 323.938 475.123 323.799C475.035 323.66 474.851 323.621 474.713 323.712C474.576 323.803 474.536 323.99 474.624 324.129C474.713 324.268 474.897 324.307 475.034 324.216Z" fill="#A6C9D4"/>
<path opacity="0.3" d="M428.191 340.458C428.081 340.582 428.091 340.773 428.213 340.884C428.335 340.996 428.522 340.986 428.631 340.863C428.74 340.739 428.73 340.548 428.609 340.436C428.487 340.325 428.3 340.334 428.191 340.458Z" fill="#A6C9D4"/>
<path opacity="0.3" d="M459.612 334.804C459.75 334.713 459.79 334.526 459.701 334.387C459.613 334.248 459.429 334.209 459.291 334.3C459.154 334.391 459.114 334.578 459.202 334.717C459.291 334.856 459.475 334.895 459.612 334.804Z" fill="#A6C9D4"/>
<path opacity="0.11" d="M466.976 323.755C467.114 323.664 467.153 323.477 467.065 323.338C466.976 323.199 466.793 323.16 466.655 323.251C466.517 323.342 466.477 323.529 466.566 323.668C466.654 323.807 466.838 323.846 466.976 323.755Z" fill="#A6C9D4"/>
<path opacity="0.11" d="M500.137 332.458C500.275 332.367 500.315 332.18 500.226 332.041C500.137 331.902 499.954 331.863 499.816 331.954C499.678 332.045 499.638 332.232 499.727 332.371C499.816 332.51 499.999 332.549 500.137 332.458Z" fill="#A6C9D4"/>
<path opacity="0.11" d="M455.991 351.138C455.925 351.212 455.931 351.327 456.004 351.394C456.077 351.461 456.19 351.455 456.255 351.381C456.321 351.306 456.315 351.192 456.242 351.125C456.169 351.058 456.056 351.063 455.991 351.138Z" fill="#A6C9D4"/>
<path d="M502.106 333.472C502.243 333.381 502.283 333.194 502.195 333.055C502.106 332.916 501.922 332.877 501.785 332.968C501.647 333.059 501.607 333.246 501.696 333.385C501.784 333.524 501.968 333.563 502.106 333.472Z" fill="#A6C9D4"/>
<path d="M453.831 350.679C453.765 350.753 453.771 350.868 453.844 350.935C453.917 351.002 454.029 350.996 454.095 350.922C454.161 350.847 454.155 350.733 454.082 350.666C454.009 350.599 453.896 350.605 453.831 350.679Z" fill="#A6C9D4"/>
<path d="M493.187 334.933C493.324 334.842 493.364 334.655 493.276 334.516C493.187 334.377 493.003 334.338 492.866 334.429C492.728 334.52 492.688 334.707 492.777 334.846C492.865 334.985 493.049 335.024 493.187 334.933Z" fill="#A6C9D4"/>
<path d="M462.076 346.913C462.01 346.987 462.016 347.102 462.089 347.169C462.162 347.236 462.274 347.23 462.34 347.156C462.406 347.082 462.4 346.967 462.327 346.9C462.254 346.833 462.141 346.839 462.076 346.913Z" fill="#A6C9D4"/>
<path opacity="0.11" d="M488.511 342.464C488.649 342.373 488.689 342.186 488.6 342.047C488.511 341.908 488.328 341.869 488.19 341.96C488.052 342.051 488.012 342.238 488.101 342.377C488.19 342.516 488.373 342.555 488.511 342.464Z" fill="#A6C9D4"/>
<path opacity="0.11" d="M464.679 338.407C464.614 338.482 464.62 338.596 464.693 338.663C464.766 338.73 464.878 338.724 464.944 338.65C465.009 338.576 465.003 338.461 464.93 338.394C464.857 338.327 464.745 338.333 464.679 338.407Z" fill="#A6C9D4"/>
<path d="M484.384 341.333C484.522 341.242 484.562 341.055 484.473 340.916C484.384 340.777 484.201 340.738 484.063 340.829C483.925 340.92 483.885 341.107 483.974 341.246C484.063 341.385 484.246 341.424 484.384 341.333Z" fill="#A6C9D4"/>
<path d="M468.954 338.411C468.888 338.485 468.894 338.6 468.967 338.667C469.04 338.734 469.152 338.728 469.218 338.654C469.284 338.58 469.278 338.465 469.205 338.398C469.132 338.331 469.019 338.337 468.954 338.411Z" fill="#A6C9D4"/>
<path d="M456.87 364.165C457.008 364.074 457.048 363.887 456.959 363.748C456.871 363.609 456.687 363.57 456.549 363.661C456.412 363.752 456.372 363.939 456.46 364.078C456.549 364.217 456.732 364.256 456.87 364.165Z" fill="#A6C9D4"/>
<path opacity="0.11" d="M446.46 365.068C446.598 364.977 446.638 364.79 446.549 364.651C446.46 364.511 446.277 364.472 446.139 364.563C446.001 364.655 445.962 364.841 446.05 364.981C446.139 365.12 446.322 365.159 446.46 365.068Z" fill="#A6C9D4"/>
<path opacity="0.11" d="M456.047 370.31C456.185 370.219 456.225 370.032 456.136 369.893C456.047 369.753 455.864 369.715 455.726 369.806C455.588 369.897 455.548 370.084 455.637 370.223C455.726 370.362 455.909 370.401 456.047 370.31Z" fill="#A6C9D4"/>
<path d="M382.001 362.505C381.892 362.629 381.902 362.82 382.023 362.931C382.145 363.043 382.332 363.033 382.442 362.91C382.551 362.786 382.541 362.595 382.419 362.483C382.298 362.372 382.111 362.381 382.001 362.505Z" fill="#A6C9D4"/>
<path opacity="0.3" d="M410.528 341.82C410.666 341.728 410.706 341.542 410.617 341.402C410.529 341.263 410.345 341.224 410.207 341.315C410.07 341.407 410.03 341.593 410.119 341.733C410.207 341.872 410.391 341.911 410.528 341.82Z" fill="#A6C9D4"/>
<path opacity="0.3" d="M419.381 312.271C419.272 312.394 419.282 312.585 419.403 312.697C419.525 312.809 419.712 312.799 419.822 312.675C419.931 312.551 419.921 312.361 419.799 312.249C419.678 312.137 419.49 312.147 419.381 312.271Z" fill="#A6C9D4"/>
<path opacity="0.11" d="M424.175 340.63C424.313 340.539 424.353 340.352 424.264 340.213C424.175 340.074 423.992 340.035 423.854 340.126C423.716 340.217 423.676 340.404 423.765 340.543C423.854 340.682 424.037 340.721 424.175 340.63Z" fill="#A6C9D4"/>
<path opacity="0.3" d="M455.376 318.829C455.514 318.738 455.554 318.551 455.465 318.412C455.376 318.273 455.193 318.234 455.055 318.325C454.917 318.416 454.878 318.603 454.966 318.742C455.055 318.882 455.238 318.921 455.376 318.829Z" fill="#A6C9D4"/>
<path opacity="0.3" d="M375.276 326.58C375.232 326.63 375.236 326.706 375.285 326.751C375.333 326.795 375.408 326.792 375.452 326.742C375.496 326.692 375.492 326.616 375.443 326.571C375.394 326.527 375.32 326.531 375.276 326.58Z" fill="#A6C9D4"/>
<path opacity="0.3" d="M372.345 308.846C372.301 308.895 372.305 308.972 372.354 309.016C372.403 309.061 372.478 309.057 372.521 309.008C372.565 308.958 372.561 308.882 372.512 308.837C372.464 308.792 372.389 308.796 372.345 308.846Z" fill="#A6C9D4"/>
<path d="M412.736 357.806C412.791 357.769 412.807 357.695 412.772 357.639C412.736 357.583 412.663 357.567 412.608 357.604C412.552 357.64 412.537 357.715 412.572 357.771C412.608 357.827 412.681 357.842 412.736 357.806Z" fill="#A6C9D4"/>
<path d="M372.994 321.988C372.95 322.038 372.954 322.114 373.002 322.159C373.051 322.204 373.126 322.2 373.17 322.15C373.214 322.101 373.21 322.024 373.161 321.98C373.112 321.935 373.037 321.939 372.994 321.988Z" fill="#A6C9D4"/>
<path d="M409.297 323.362C409.275 323.387 409.277 323.425 409.301 323.448C409.326 323.47 409.363 323.468 409.385 323.443C409.407 323.419 409.405 323.38 409.381 323.358C409.356 323.336 409.319 323.338 409.297 323.362Z" fill="#A6C9D4"/>
<path opacity="0.11" d="M402.305 364.124C402.443 364.033 402.482 363.846 402.394 363.707C402.305 363.568 402.122 363.529 401.984 363.62C401.846 363.711 401.806 363.898 401.895 364.037C401.984 364.176 402.167 364.215 402.305 364.124Z" fill="#A6C9D4"/>
<path opacity="0.11" d="M436.411 349.865C436.549 349.773 436.589 349.587 436.5 349.447C436.412 349.308 436.228 349.269 436.09 349.36C435.953 349.451 435.913 349.638 436.001 349.777C436.09 349.917 436.274 349.956 436.411 349.865Z" fill="#A6C9D4"/>
<path opacity="0.11" d="M420.48 341.888C420.414 341.962 420.42 342.077 420.493 342.144C420.566 342.211 420.679 342.205 420.744 342.131C420.81 342.056 420.804 341.942 420.731 341.875C420.658 341.808 420.546 341.813 420.48 341.888Z" fill="#A6C9D4"/>
<path opacity="0.3" d="M412.943 362.687C413.08 362.596 413.12 362.409 413.032 362.27C412.943 362.13 412.759 362.091 412.622 362.183C412.484 362.274 412.444 362.461 412.533 362.6C412.621 362.739 412.805 362.778 412.943 362.687Z" fill="#A6C9D4"/>
<path d="M438.926 335.074C439.064 334.982 439.104 334.796 439.015 334.656C438.926 334.517 438.743 334.478 438.605 334.569C438.467 334.66 438.427 334.847 438.516 334.986C438.605 335.126 438.788 335.165 438.926 335.074Z" fill="#A6C9D4"/>
<path d="M421.806 356.839C421.741 356.913 421.747 357.028 421.82 357.095C421.893 357.162 422.005 357.156 422.071 357.082C422.136 357.007 422.13 356.893 422.057 356.826C421.984 356.759 421.872 356.765 421.806 356.839Z" fill="#A6C9D4"/>
<path d="M437.82 353.57C437.958 353.478 437.998 353.292 437.909 353.152C437.821 353.013 437.637 352.974 437.5 353.065C437.362 353.157 437.322 353.343 437.41 353.483C437.499 353.622 437.683 353.661 437.82 353.57Z" fill="#A6C9D4"/>
<path opacity="0.3" d="M405.466 342.503C405.521 342.467 405.537 342.392 405.501 342.336C405.466 342.28 405.392 342.265 405.337 342.301C405.282 342.338 405.266 342.412 405.302 342.468C405.337 342.524 405.411 342.54 405.466 342.503Z" fill="#A6C9D4"/>
<path opacity="0.3" d="M390.204 354.528C390.259 354.492 390.275 354.417 390.239 354.361C390.204 354.306 390.131 354.29 390.075 354.327C390.02 354.363 390.004 354.438 390.04 354.494C390.075 354.549 390.149 354.565 390.204 354.528Z" fill="#A6C9D4"/>
<path opacity="0.3" d="M380.544 347.984C380.599 347.947 380.615 347.872 380.579 347.817C380.544 347.761 380.47 347.745 380.415 347.782C380.36 347.818 380.344 347.893 380.38 347.949C380.415 348.004 380.489 348.02 380.544 347.984Z" fill="#A6C9D4"/>
<path d="M390.28 359.112C390.335 359.076 390.351 359.001 390.316 358.945C390.28 358.89 390.207 358.874 390.152 358.911C390.096 358.947 390.081 359.022 390.116 359.077C390.152 359.133 390.225 359.149 390.28 359.112Z" fill="#A6C9D4"/>
<path d="M370.566 367.712C370.621 367.676 370.637 367.601 370.602 367.545C370.566 367.489 370.493 367.474 370.438 367.51C370.383 367.547 370.367 367.621 370.402 367.677C370.438 367.733 370.511 367.748 370.566 367.712Z" fill="#A6C9D4"/>
<path d="M446.849 354.692C446.905 354.656 446.92 354.581 446.885 354.526C446.849 354.47 446.776 354.454 446.721 354.491C446.666 354.527 446.65 354.602 446.685 354.658C446.721 354.713 446.794 354.729 446.849 354.692Z" fill="#A6C9D4"/>
<path opacity="0.3" d="M390.043 368.415C390.098 368.379 390.114 368.304 390.078 368.248C390.043 368.192 389.969 368.177 389.914 368.213C389.859 368.25 389.843 368.324 389.879 368.38C389.914 368.436 389.988 368.452 390.043 368.415Z" fill="#A6C9D4"/>
<path opacity="0.3" d="M374.488 368.089C374.543 368.053 374.559 367.978 374.524 367.922C374.488 367.866 374.415 367.851 374.36 367.887C374.304 367.924 374.289 367.998 374.324 368.054C374.36 368.11 374.433 368.125 374.488 368.089Z" fill="#A6C9D4"/>
<path opacity="0.3" d="M390.606 350.86C390.661 350.824 390.677 350.749 390.642 350.694C390.606 350.638 390.533 350.622 390.478 350.659C390.423 350.695 390.407 350.77 390.442 350.826C390.478 350.881 390.551 350.897 390.606 350.86Z" fill="#A6C9D4"/>
<path opacity="0.11" d="M385.278 350.525C385.333 350.488 385.349 350.413 385.314 350.358C385.278 350.302 385.205 350.286 385.15 350.323C385.094 350.359 385.079 350.434 385.114 350.49C385.15 350.545 385.223 350.561 385.278 350.525Z" fill="#A6C9D4"/>
<path opacity="0.3" d="M407.595 365.83C407.622 365.811 407.63 365.774 407.612 365.746C407.595 365.718 407.558 365.71 407.53 365.729C407.503 365.747 407.495 365.784 407.513 365.812C407.53 365.84 407.567 365.848 407.595 365.83Z" fill="#A6C9D4"/>
<path d="M415.991 360.275C416.019 360.257 416.027 360.219 416.009 360.191C415.991 360.164 415.954 360.156 415.927 360.174C415.899 360.192 415.891 360.23 415.909 360.257C415.927 360.285 415.964 360.293 415.991 360.275Z" fill="#A6C9D4"/>
<path opacity="0.11" d="M733.374 356.802C733.236 356.711 733.196 356.524 733.285 356.385C733.374 356.246 733.557 356.207 733.695 356.298C733.833 356.389 733.872 356.576 733.784 356.715C733.695 356.854 733.512 356.893 733.374 356.802Z" fill="#A6C9D4"/>
<path d="M731.405 357.816C731.267 357.725 731.227 357.538 731.316 357.399C731.405 357.259 731.588 357.22 731.726 357.312C731.864 357.403 731.904 357.589 731.815 357.729C731.726 357.868 731.543 357.907 731.405 357.816Z" fill="#A6C9D4"/>
<path d="M728.82 352.054C728.682 351.963 728.643 351.776 728.731 351.637C728.82 351.498 729.003 351.459 729.141 351.55C729.279 351.641 729.319 351.828 729.23 351.967C729.141 352.106 728.958 352.145 728.82 352.054Z" fill="#A6C9D4"/>
<path d="M740.323 359.273C740.185 359.182 740.145 358.995 740.234 358.856C740.323 358.716 740.506 358.677 740.644 358.769C740.782 358.86 740.822 359.046 740.733 359.186C740.644 359.325 740.461 359.364 740.323 359.273Z" fill="#A6C9D4"/>
<path opacity="0.11" d="M745 366.81C744.862 366.719 744.822 366.532 744.911 366.393C744.999 366.253 745.183 366.215 745.321 366.306C745.459 366.397 745.498 366.584 745.41 366.723C745.321 366.862 745.138 366.901 745 366.81Z" fill="#A6C9D4"/>
<path d="M695.528 359.533C695.459 359.488 695.439 359.394 695.484 359.324C695.528 359.255 695.62 359.235 695.689 359.281C695.758 359.326 695.778 359.42 695.733 359.489C695.689 359.559 695.597 359.579 695.528 359.533Z" fill="#A6C9D4"/>
<path d="M730.096 362.548C729.958 362.457 729.918 362.27 730.007 362.131C730.095 361.992 730.279 361.953 730.417 362.044C730.554 362.135 730.594 362.322 730.506 362.461C730.417 362.6 730.233 362.639 730.096 362.548Z" fill="#A6C9D4"/>
<path d="M701.039 343.327C700.901 343.236 700.861 343.05 700.95 342.91C701.039 342.771 701.222 342.732 701.36 342.823C701.498 342.914 701.538 343.101 701.449 343.24C701.36 343.38 701.177 343.419 701.039 343.327Z" fill="#A6C9D4"/>
<path d="M691.184 326.382C691.047 326.291 691.007 326.104 691.095 325.965C691.184 325.826 691.368 325.787 691.505 325.878C691.643 325.969 691.683 326.156 691.594 326.295C691.506 326.434 691.322 326.473 691.184 326.382Z" fill="#A6C9D4"/>
<path d="M679.671 332.861C679.533 332.769 679.493 332.583 679.582 332.444C679.67 332.304 679.854 332.265 679.992 332.356C680.13 332.448 680.169 332.634 680.081 332.774C679.992 332.913 679.809 332.952 679.671 332.861Z" fill="#A6C9D4"/>
<path opacity="0.11" d="M749.203 368.236C749.065 368.144 749.025 367.958 749.114 367.818C749.203 367.679 749.386 367.64 749.524 367.731C749.662 367.823 749.702 368.009 749.613 368.149C749.524 368.288 749.341 368.327 749.203 368.236Z" fill="#A6C9D4"/>
<path opacity="0.11" d="M727.248 367.615C727.11 367.523 727.07 367.337 727.159 367.197C727.248 367.058 727.431 367.019 727.569 367.11C727.707 367.201 727.747 367.388 727.658 367.527C727.569 367.667 727.386 367.706 727.248 367.615Z" fill="#A6C9D4"/>
<path opacity="0.11" d="M702.523 349.327C702.385 349.236 702.346 349.05 702.434 348.91C702.523 348.771 702.706 348.732 702.844 348.823C702.982 348.914 703.022 349.101 702.933 349.24C702.845 349.38 702.661 349.419 702.523 349.327Z" fill="#A6C9D4"/>
<path d="M693.089 347.301C693.02 347.255 693 347.162 693.044 347.092C693.089 347.022 693.18 347.003 693.249 347.048C693.318 347.094 693.338 347.187 693.294 347.257C693.249 347.327 693.158 347.346 693.089 347.301Z" fill="#A6C9D4"/>
<path d="M726.336 339.595C726.198 339.504 726.158 339.317 726.247 339.178C726.335 339.039 726.519 339 726.657 339.091C726.795 339.182 726.834 339.369 726.746 339.508C726.657 339.647 726.474 339.686 726.336 339.595Z" fill="#A6C9D4"/>
<path d="M747.794 371.941C747.656 371.85 747.616 371.663 747.705 371.524C747.793 371.384 747.977 371.345 748.115 371.437C748.253 371.528 748.292 371.714 748.204 371.854C748.115 371.993 747.932 372.032 747.794 371.941Z" fill="#A6C9D4"/>
<path opacity="0.3" d="M742.212 355.118C742.074 355.027 742.034 354.841 742.123 354.701C742.211 354.562 742.395 354.523 742.533 354.614C742.671 354.705 742.71 354.892 742.622 355.031C742.533 355.171 742.35 355.21 742.212 355.118Z" fill="#A6C9D4"/>
<path opacity="0.3" d="M743.884 373.023C743.746 372.932 743.706 372.745 743.795 372.606C743.883 372.466 744.067 372.427 744.205 372.519C744.342 372.61 744.382 372.796 744.294 372.936C744.205 373.075 744.021 373.114 743.884 373.023Z" fill="#A6C9D4"/>
<path opacity="0.3" d="M686.166 323.257C686.028 323.166 685.988 322.979 686.077 322.84C686.165 322.701 686.349 322.662 686.487 322.753C686.625 322.844 686.664 323.031 686.576 323.17C686.487 323.309 686.304 323.348 686.166 323.257Z" fill="#A6C9D4"/>
<path opacity="0.11" d="M711.171 331.88C711.033 331.789 710.993 331.602 711.082 331.463C711.17 331.324 711.354 331.285 711.492 331.376C711.63 331.467 711.669 331.654 711.581 331.793C711.492 331.932 711.309 331.971 711.171 331.88Z" fill="#A6C9D4"/>
<path opacity="0.11" d="M686.046 331.48C685.908 331.389 685.868 331.202 685.957 331.063C686.045 330.923 686.229 330.884 686.367 330.976C686.505 331.067 686.544 331.253 686.456 331.393C686.367 331.532 686.184 331.571 686.046 331.48Z" fill="#A6C9D4"/>
<path opacity="0.3" d="M719.293 354.824C719.155 354.732 719.115 354.546 719.204 354.406C719.292 354.267 719.476 354.228 719.614 354.319C719.752 354.41 719.791 354.597 719.703 354.736C719.614 354.876 719.431 354.915 719.293 354.824Z" fill="#A6C9D4"/>
<path opacity="0.11" d="M714.023 345.546C713.885 345.455 713.846 345.268 713.934 345.129C714.023 344.99 714.206 344.951 714.344 345.042C714.482 345.133 714.522 345.32 714.433 345.459C714.345 345.598 714.161 345.637 714.023 345.546Z" fill="#A6C9D4"/>
<path d="M716.963 340.927C716.825 340.836 716.785 340.649 716.874 340.51C716.962 340.371 717.146 340.332 717.284 340.423C717.422 340.514 717.461 340.701 717.373 340.84C717.284 340.979 717.101 341.018 716.963 340.927Z" fill="#A6C9D4"/>
<path d="M717.077 361.275C716.939 361.184 716.899 360.997 716.988 360.858C717.077 360.718 717.26 360.679 717.398 360.771C717.536 360.862 717.576 361.048 717.487 361.188C717.398 361.327 717.215 361.366 717.077 361.275Z" fill="#A6C9D4"/>
<path d="M671.099 334.72C670.962 334.629 670.922 334.442 671.01 334.303C671.099 334.164 671.283 334.125 671.42 334.216C671.558 334.307 671.598 334.494 671.509 334.633C671.421 334.772 671.237 334.811 671.099 334.72Z" fill="#A6C9D4"/>
<path d="M704.802 353.159C704.911 353.283 704.901 353.474 704.779 353.586C704.658 353.697 704.47 353.688 704.361 353.564C704.252 353.44 704.262 353.249 704.383 353.138C704.505 353.026 704.692 353.036 704.802 353.159Z" fill="#A6C9D4"/>
<path d="M721.631 347.876C721.493 347.785 721.453 347.598 721.542 347.459C721.63 347.32 721.814 347.281 721.952 347.372C722.089 347.463 722.129 347.65 722.041 347.789C721.952 347.928 721.768 347.967 721.631 347.876Z" fill="#A6C9D4"/>
<path d="M738.422 373.269C738.284 373.178 738.244 372.991 738.333 372.852C738.421 372.712 738.605 372.673 738.743 372.765C738.88 372.856 738.92 373.043 738.832 373.182C738.743 373.321 738.559 373.36 738.422 373.269Z" fill="#A6C9D4"/>
<path d="M701.115 356.892C700.977 356.801 700.937 356.614 701.026 356.475C701.115 356.336 701.298 356.297 701.436 356.388C701.574 356.479 701.614 356.666 701.525 356.805C701.436 356.944 701.253 356.983 701.115 356.892Z" fill="#A6C9D4"/>
<path d="M671.679 324.292C671.541 324.201 671.501 324.014 671.59 323.875C671.678 323.736 671.862 323.697 672 323.788C672.137 323.879 672.177 324.066 672.089 324.205C672 324.344 671.816 324.383 671.679 324.292Z" fill="#A6C9D4"/>
<path d="M724.943 339.788C725.052 339.912 725.043 340.103 724.921 340.214C724.799 340.326 724.612 340.316 724.503 340.193C724.393 340.069 724.403 339.878 724.525 339.766C724.647 339.655 724.834 339.665 724.943 339.788Z" fill="#A6C9D4"/>
<path d="M673.237 314.704C673.099 314.613 673.06 314.426 673.148 314.287C673.237 314.148 673.42 314.109 673.558 314.2C673.696 314.291 673.736 314.478 673.647 314.617C673.558 314.757 673.375 314.796 673.237 314.704Z" fill="#A6C9D4"/>
<path d="M721.004 348.634C721.113 348.758 721.103 348.948 720.981 349.06C720.86 349.172 720.673 349.162 720.563 349.038C720.454 348.915 720.464 348.724 720.585 348.612C720.707 348.5 720.894 348.51 721.004 348.634Z" fill="#A6C9D4"/>
<path opacity="0.3" d="M706.035 333.695C705.897 333.603 705.857 333.417 705.946 333.277C706.035 333.138 706.218 333.099 706.356 333.19C706.494 333.282 706.534 333.468 706.445 333.608C706.356 333.747 706.173 333.786 706.035 333.695Z" fill="#A6C9D4"/>
<path d="M719.677 324.052C719.539 323.961 719.499 323.774 719.588 323.635C719.676 323.496 719.86 323.457 719.998 323.548C720.135 323.639 720.175 323.826 720.087 323.965C719.998 324.104 719.814 324.143 719.677 324.052Z" fill="#A6C9D4"/>
<path d="M697.114 332.238C696.976 332.146 696.936 331.96 697.025 331.82C697.114 331.681 697.297 331.642 697.435 331.733C697.573 331.825 697.613 332.011 697.524 332.151C697.435 332.29 697.252 332.329 697.114 332.238Z" fill="#A6C9D4"/>
<path opacity="0.3" d="M694.178 322.572C694.04 322.48 694 322.294 694.089 322.154C694.177 322.015 694.361 321.976 694.499 322.067C694.636 322.159 694.676 322.345 694.588 322.485C694.499 322.624 694.315 322.663 694.178 322.572Z" fill="#A6C9D4"/>
<path opacity="0.3" d="M674.841 323.488C674.703 323.396 674.663 323.21 674.752 323.07C674.84 322.931 675.024 322.892 675.162 322.983C675.299 323.075 675.339 323.261 675.251 323.401C675.162 323.54 674.978 323.579 674.841 323.488Z" fill="#A6C9D4"/>
<path opacity="0.3" d="M721.685 339.728C721.795 339.851 721.785 340.042 721.663 340.154C721.541 340.266 721.354 340.256 721.245 340.132C721.136 340.008 721.145 339.818 721.267 339.706C721.389 339.594 721.576 339.604 721.685 339.728Z" fill="#A6C9D4"/>
<path opacity="0.3" d="M690.263 334.074C690.125 333.982 690.085 333.796 690.174 333.656C690.262 333.517 690.446 333.478 690.584 333.569C690.721 333.66 690.761 333.847 690.673 333.986C690.584 334.126 690.4 334.165 690.263 334.074Z" fill="#A6C9D4"/>
<path opacity="0.11" d="M682.899 323.027C682.761 322.935 682.722 322.749 682.81 322.61C682.899 322.47 683.082 322.431 683.22 322.522C683.358 322.614 683.398 322.8 683.309 322.94C683.221 323.079 683.037 323.118 682.899 323.027Z" fill="#A6C9D4"/>
<path opacity="0.11" d="M649.739 331.73C649.601 331.639 649.561 331.452 649.65 331.313C649.739 331.173 649.922 331.134 650.06 331.226C650.198 331.317 650.238 331.503 650.149 331.643C650.06 331.782 649.877 331.821 649.739 331.73Z" fill="#A6C9D4"/>
<path opacity="0.11" d="M693.885 350.407C693.951 350.482 693.945 350.596 693.872 350.663C693.799 350.73 693.686 350.724 693.621 350.65C693.555 350.576 693.561 350.461 693.634 350.394C693.707 350.327 693.82 350.333 693.885 350.407Z" fill="#A6C9D4"/>
<path d="M647.77 332.741C647.633 332.65 647.593 332.464 647.681 332.324C647.77 332.185 647.954 332.146 648.091 332.237C648.229 332.328 648.269 332.515 648.18 332.654C648.092 332.794 647.908 332.833 647.77 332.741Z" fill="#A6C9D4"/>
<path d="M696.044 349.948C696.11 350.023 696.104 350.137 696.031 350.204C695.958 350.271 695.846 350.265 695.78 350.191C695.714 350.117 695.72 350.002 695.793 349.935C695.866 349.868 695.979 349.874 696.044 349.948Z" fill="#A6C9D4"/>
<path d="M656.688 334.2C656.551 334.109 656.511 333.923 656.599 333.783C656.688 333.644 656.872 333.605 657.009 333.696C657.147 333.787 657.187 333.974 657.098 334.113C657.01 334.253 656.826 334.292 656.688 334.2Z" fill="#A6C9D4"/>
<path d="M687.799 346.185C687.865 346.259 687.859 346.373 687.786 346.441C687.713 346.508 687.601 346.502 687.535 346.427C687.469 346.353 687.475 346.239 687.548 346.172C687.621 346.105 687.734 346.11 687.799 346.185Z" fill="#A6C9D4"/>
<path opacity="0.11" d="M661.365 341.734C661.227 341.643 661.187 341.456 661.276 341.317C661.365 341.177 661.548 341.138 661.686 341.229C661.824 341.321 661.864 341.507 661.775 341.647C661.686 341.786 661.503 341.825 661.365 341.734Z" fill="#A6C9D4"/>
<path opacity="0.11" d="M685.197 337.679C685.262 337.753 685.256 337.868 685.183 337.935C685.11 338.002 684.998 337.996 684.932 337.922C684.867 337.847 684.873 337.733 684.946 337.666C685.019 337.599 685.131 337.605 685.197 337.679Z" fill="#A6C9D4"/>
<path d="M665.492 340.603C665.354 340.512 665.314 340.325 665.403 340.186C665.492 340.046 665.675 340.007 665.813 340.099C665.951 340.19 665.991 340.377 665.902 340.516C665.813 340.655 665.63 340.694 665.492 340.603Z" fill="#A6C9D4"/>
<path d="M680.921 337.679C680.987 337.753 680.981 337.868 680.908 337.935C680.835 338.002 680.723 337.996 680.657 337.922C680.591 337.847 680.597 337.733 680.67 337.666C680.743 337.599 680.856 337.605 680.921 337.679Z" fill="#A6C9D4"/>
<path d="M693.005 363.437C692.867 363.346 692.827 363.159 692.916 363.02C693.004 362.88 693.188 362.841 693.326 362.933C693.463 363.024 693.503 363.211 693.415 363.35C693.326 363.489 693.143 363.528 693.005 363.437Z" fill="#A6C9D4"/>
<path opacity="0.11" d="M699.674 357.423C699.536 357.332 699.496 357.145 699.585 357.006C699.673 356.867 699.857 356.828 699.995 356.919C700.132 357.01 700.172 357.197 700.084 357.336C699.995 357.475 699.811 357.514 699.674 357.423Z" fill="#A6C9D4"/>
<path opacity="0.11" d="M703.415 364.339C703.277 364.248 703.237 364.061 703.326 363.922C703.415 363.783 703.598 363.744 703.736 363.835C703.874 363.926 703.913 364.113 703.825 364.252C703.736 364.391 703.553 364.43 703.415 364.339Z" fill="#A6C9D4"/>
<path opacity="0.11" d="M693.828 369.581C693.69 369.49 693.65 369.303 693.739 369.164C693.828 369.025 694.011 368.986 694.149 369.077C694.287 369.168 694.327 369.355 694.238 369.494C694.149 369.634 693.966 369.672 693.828 369.581Z" fill="#A6C9D4"/>
<path opacity="0.11" d="M665.568 343.161C665.43 343.07 665.391 342.884 665.479 342.744C665.568 342.605 665.751 342.566 665.889 342.657C666.027 342.748 666.067 342.935 665.978 343.074C665.89 343.214 665.706 343.253 665.568 343.161Z" fill="#A6C9D4"/>
<path opacity="0.11" d="M681.498 335.185C681.564 335.259 681.558 335.373 681.485 335.441C681.412 335.508 681.3 335.502 681.234 335.427C681.168 335.353 681.174 335.239 681.247 335.172C681.32 335.105 681.433 335.11 681.498 335.185Z" fill="#A6C9D4"/>
<path opacity="0.3" d="M689.037 355.984C688.899 355.893 688.859 355.706 688.948 355.567C689.037 355.427 689.22 355.388 689.358 355.479C689.496 355.571 689.536 355.757 689.447 355.897C689.358 356.036 689.175 356.075 689.037 355.984Z" fill="#A6C9D4"/>
<path d="M663.053 328.37C662.915 328.279 662.875 328.092 662.964 327.953C663.052 327.814 663.236 327.775 663.374 327.866C663.511 327.957 663.551 328.144 663.463 328.283C663.374 328.423 663.19 328.462 663.053 328.37Z" fill="#A6C9D4"/>
<path d="M680.173 350.138C680.239 350.212 680.233 350.327 680.16 350.394C680.087 350.461 679.975 350.455 679.909 350.381C679.843 350.306 679.849 350.192 679.922 350.125C679.995 350.058 680.108 350.063 680.173 350.138Z" fill="#A6C9D4"/>
<path d="M664.158 346.866C664.02 346.775 663.98 346.589 664.069 346.449C664.158 346.31 664.341 346.271 664.479 346.362C664.617 346.453 664.657 346.64 664.568 346.779C664.479 346.919 664.296 346.958 664.158 346.866Z" fill="#A6C9D4"/>
<path d="M767.874 361.777C767.983 361.9 767.973 362.091 767.852 362.203C767.73 362.314 767.543 362.305 767.433 362.181C767.324 362.057 767.334 361.866 767.456 361.755C767.577 361.643 767.764 361.653 767.874 361.777Z" fill="#A6C9D4"/>
<path opacity="0.3" d="M673.489 353.036C673.351 352.945 673.311 352.759 673.4 352.619C673.489 352.48 673.672 352.441 673.81 352.532C673.948 352.623 673.988 352.81 673.899 352.949C673.81 353.089 673.627 353.128 673.489 353.036Z" fill="#A6C9D4"/>
<path opacity="0.3" d="M730.494 311.544C730.603 311.668 730.593 311.859 730.472 311.97C730.35 312.082 730.163 312.072 730.053 311.949C729.944 311.825 729.954 311.634 730.076 311.522C730.197 311.411 730.385 311.42 730.494 311.544Z" fill="#A6C9D4"/>
<path opacity="0.11" d="M689.777 351.843C689.639 351.752 689.6 351.565 689.688 351.426C689.777 351.287 689.96 351.248 690.098 351.339C690.236 351.43 690.276 351.617 690.187 351.756C690.099 351.895 689.915 351.934 689.777 351.843Z" fill="#A6C9D4"/>
<path opacity="0.3" d="M658.577 330.044C658.439 329.953 658.399 329.766 658.488 329.627C658.577 329.488 658.76 329.449 658.898 329.54C659.036 329.631 659.076 329.818 658.987 329.957C658.898 330.096 658.715 330.135 658.577 330.044Z" fill="#A6C9D4"/>
<path opacity="0.3" d="M738.676 337.795C738.72 337.844 738.716 337.921 738.668 337.966C738.619 338.01 738.544 338.006 738.5 337.957C738.456 337.907 738.46 337.831 738.509 337.786C738.558 337.742 738.633 337.745 738.676 337.795Z" fill="#A6C9D4"/>
<path opacity="0.3" d="M660.591 347.743C660.536 347.707 660.52 347.632 660.555 347.576C660.591 347.521 660.664 347.505 660.72 347.541C660.775 347.578 660.791 347.653 660.755 347.708C660.72 347.764 660.646 347.78 660.591 347.743Z" fill="#A6C9D4"/>
<path opacity="0.3" d="M741.608 320.059C741.652 320.108 741.648 320.185 741.599 320.229C741.55 320.274 741.476 320.27 741.432 320.221C741.388 320.171 741.392 320.095 741.441 320.05C741.489 320.005 741.564 320.009 741.608 320.059Z" fill="#A6C9D4"/>
<path opacity="0.3" d="M675.853 359.773C675.798 359.736 675.782 359.661 675.817 359.606C675.853 359.55 675.926 359.534 675.981 359.571C676.036 359.607 676.052 359.682 676.017 359.738C675.981 359.793 675.908 359.809 675.853 359.773Z" fill="#A6C9D4"/>
<path opacity="0.3" d="M685.513 353.226C685.458 353.189 685.442 353.114 685.477 353.059C685.513 353.003 685.586 352.987 685.641 353.024C685.697 353.06 685.712 353.135 685.677 353.191C685.641 353.247 685.568 353.262 685.513 353.226Z" fill="#A6C9D4"/>
<path d="M675.777 364.353C675.721 364.316 675.706 364.241 675.741 364.186C675.777 364.13 675.85 364.114 675.905 364.151C675.96 364.187 675.976 364.262 675.941 364.318C675.905 364.373 675.832 364.389 675.777 364.353Z" fill="#A6C9D4"/>
<path d="M695.49 372.952C695.435 372.916 695.419 372.841 695.455 372.785C695.49 372.73 695.564 372.714 695.619 372.75C695.674 372.787 695.69 372.862 695.654 372.917C695.619 372.973 695.546 372.989 695.49 372.952Z" fill="#A6C9D4"/>
<path d="M701.217 369.021C701.162 368.984 701.146 368.909 701.181 368.854C701.217 368.798 701.29 368.782 701.346 368.819C701.401 368.855 701.417 368.93 701.381 368.986C701.346 369.041 701.272 369.057 701.217 369.021Z" fill="#A6C9D4"/>
<path d="M655.129 347.989C655.074 347.953 655.058 347.878 655.094 347.822C655.129 347.767 655.203 347.751 655.258 347.787C655.313 347.824 655.329 347.899 655.293 347.954C655.258 348.01 655.184 348.026 655.129 347.989Z" fill="#A6C9D4"/>
<path d="M746.946 321.26C746.99 321.309 746.986 321.386 746.937 321.43C746.888 321.475 746.813 321.471 746.77 321.422C746.726 321.372 746.73 321.296 746.779 321.251C746.827 321.206 746.902 321.21 746.946 321.26Z" fill="#A6C9D4"/>
<path opacity="0.3" d="M682.001 361.714C681.946 361.678 681.93 361.603 681.966 361.547C682.001 361.491 682.075 361.476 682.13 361.512C682.185 361.549 682.201 361.623 682.165 361.679C682.13 361.735 682.056 361.75 682.001 361.714Z" fill="#A6C9D4"/>
<path opacity="0.3" d="M697.556 361.386C697.501 361.349 697.485 361.275 697.52 361.219C697.556 361.163 697.629 361.148 697.684 361.184C697.739 361.22 697.755 361.295 697.72 361.351C697.684 361.407 697.611 361.422 697.556 361.386Z" fill="#A6C9D4"/>
<path opacity="0.3" d="M681.438 344.157C681.383 344.121 681.367 344.046 681.402 343.99C681.438 343.935 681.511 343.919 681.566 343.955C681.621 343.992 681.637 344.067 681.602 344.122C681.566 344.178 681.493 344.194 681.438 344.157Z" fill="#A6C9D4"/>
<path opacity="0.11" d="M686.765 343.821C686.71 343.785 686.694 343.71 686.729 343.654C686.765 343.599 686.838 343.583 686.893 343.62C686.948 343.656 686.964 343.731 686.929 343.786C686.893 343.842 686.82 343.858 686.765 343.821Z" fill="#A6C9D4"/>
<path opacity="0.3" d="M664.449 359.127C664.422 359.108 664.414 359.071 664.432 359.043C664.449 359.015 664.486 359.007 664.514 359.026C664.541 359.044 664.549 359.081 664.531 359.109C664.514 359.137 664.477 359.145 664.449 359.127Z" fill="#A6C9D4"/>
<path d="M656.053 353.57C656.025 353.552 656.017 353.514 656.035 353.486C656.053 353.459 656.09 353.451 656.117 353.469C656.145 353.487 656.153 353.525 656.135 353.552C656.117 353.58 656.08 353.588 656.053 353.57Z" fill="#A6C9D4"/>
<path d="M710.643 322.632C710.665 322.657 710.663 322.695 710.639 322.717C710.615 322.74 710.577 322.738 710.555 322.713C710.533 322.688 710.535 322.65 710.56 322.627C710.584 322.605 710.621 322.607 710.643 322.632Z" fill="#A6C9D4"/>
<path opacity="0.11" d="M569.702 329.137C569.905 329.137 570.072 329.301 570.075 329.503C570.079 329.705 569.917 329.869 569.714 329.869C569.512 329.869 569.345 329.705 569.341 329.503C569.338 329.3 569.499 329.136 569.702 329.137Z" fill="#A6C9D4"/>
<path d="M571.03 326.767C571.233 326.767 571.4 326.932 571.403 327.134C571.407 327.336 571.245 327.5 571.043 327.5C570.84 327.5 570.673 327.336 570.67 327.134C570.666 326.931 570.828 326.767 571.03 326.767Z" fill="#A6C9D4"/>
<path d="M577.571 330.918C577.774 330.918 577.941 331.082 577.944 331.284C577.948 331.487 577.786 331.651 577.584 331.651C577.381 331.65 577.214 331.486 577.211 331.284C577.207 331.082 577.369 330.918 577.571 330.918Z" fill="#A6C9D4"/>
<path d="M560.921 331.304C561.123 331.305 561.29 331.469 561.294 331.671C561.297 331.873 561.136 332.037 560.933 332.037C560.731 332.037 560.564 331.873 560.56 331.671C560.557 331.468 560.718 331.304 560.921 331.304Z" fill="#A6C9D4"/>
<path opacity="0.11" d="M551.042 326.758C551.244 326.758 551.412 326.922 551.415 327.124C551.418 327.327 551.257 327.491 551.054 327.49C550.852 327.49 550.685 327.326 550.681 327.124C550.678 326.921 550.839 326.757 551.042 326.758Z" fill="#A6C9D4"/>
<path d="M547.586 330.705C547.788 330.705 547.955 330.869 547.959 331.071C547.962 331.274 547.801 331.438 547.598 331.438C547.396 331.438 547.229 331.273 547.225 331.071C547.222 330.869 547.383 330.705 547.586 330.705Z" fill="#A6C9D4"/>
<path d="M569.171 321.039C569.373 321.039 569.54 321.203 569.544 321.405C569.547 321.608 569.386 321.772 569.183 321.772C568.981 321.772 568.814 321.607 568.81 321.405C568.807 321.203 568.968 321.039 569.171 321.039Z" fill="#A6C9D4"/>
<path d="M611.892 321.062C612.095 321.062 612.262 321.227 612.266 321.429C612.269 321.631 612.108 321.795 611.905 321.795C611.702 321.795 611.535 321.631 611.532 321.429C611.528 321.226 611.69 321.062 611.892 321.062Z" fill="#A6C9D4"/>
<path d="M633.431 331.738C633.633 331.738 633.8 331.902 633.804 332.105C633.807 332.307 633.646 332.471 633.443 332.471C633.24 332.471 633.073 332.307 633.07 332.104C633.067 331.902 633.228 331.738 633.431 331.738Z" fill="#A6C9D4"/>
<path d="M640.83 317.326C641.033 317.326 641.2 317.49 641.203 317.693C641.206 317.895 641.045 318.059 640.842 318.059C640.64 318.059 640.473 317.895 640.469 317.692C640.466 317.49 640.627 317.326 640.83 317.326Z" fill="#A6C9D4"/>
<path opacity="0.11" d="M545.776 328.137C545.979 328.137 546.146 328.301 546.149 328.503C546.153 328.705 545.991 328.869 545.789 328.869C545.586 328.869 545.419 328.705 545.416 328.503C545.412 328.3 545.574 328.136 545.776 328.137Z" fill="#A6C9D4"/>
<path opacity="0.11" d="M568.659 313.929C568.862 313.93 569.029 314.094 569.032 314.296C569.036 314.498 568.874 314.662 568.672 314.662C568.469 314.662 568.302 314.498 568.298 314.296C568.295 314.093 568.456 313.929 568.659 313.929Z" fill="#A6C9D4"/>
<path opacity="0.11" d="M606.318 315.926C606.521 315.926 606.688 316.09 606.691 316.292C606.695 316.495 606.533 316.659 606.331 316.658C606.128 316.658 605.961 316.494 605.958 316.292C605.954 316.089 606.116 315.925 606.318 315.926Z" fill="#A6C9D4"/>
<path d="M558.35 341.572C558.553 341.572 558.72 341.736 558.724 341.939C558.727 342.141 558.566 342.305 558.363 342.305C558.16 342.305 557.993 342.141 557.99 341.938C557.986 341.736 558.148 341.572 558.35 341.572Z" fill="#A6C9D4"/>
<path d="M623.533 336.98C623.736 336.98 623.903 337.144 623.906 337.347C623.91 337.549 623.748 337.713 623.546 337.713C623.343 337.713 623.176 337.549 623.172 337.346C623.169 337.144 623.331 336.98 623.533 336.98Z" fill="#A6C9D4"/>
<path d="M544.716 323.396C544.918 323.396 545.085 323.561 545.089 323.763C545.092 323.965 544.931 324.129 544.728 324.129C544.526 324.129 544.359 323.965 544.355 323.762C544.352 323.56 544.513 323.396 544.716 323.396Z" fill="#A6C9D4"/>
<path opacity="0.3" d="M561.798 336.834C562 336.834 562.167 336.998 562.171 337.2C562.174 337.403 562.013 337.567 561.81 337.567C561.608 337.566 561.441 337.402 561.437 337.2C561.434 336.998 561.595 336.834 561.798 336.834Z" fill="#A6C9D4"/>
<path opacity="0.3" d="M547.984 319.646C548.187 319.646 548.354 319.811 548.357 320.013C548.361 320.215 548.199 320.379 547.997 320.379C547.794 320.379 547.627 320.215 547.624 320.012C547.62 319.81 547.782 319.646 547.984 319.646Z" fill="#A6C9D4"/>
<path opacity="0.3" d="M640.679 331.543C640.881 331.543 641.048 331.707 641.052 331.909C641.055 332.112 640.894 332.276 640.691 332.276C640.488 332.275 640.321 332.111 640.318 331.909C640.315 331.707 640.476 331.543 640.679 331.543Z" fill="#A6C9D4"/>
<path opacity="0.11" d="M609.266 339.625C609.468 339.625 609.635 339.789 609.639 339.991C609.642 340.194 609.481 340.358 609.278 340.358C609.075 340.358 608.908 340.193 608.905 339.991C608.901 339.789 609.063 339.625 609.266 339.625Z" fill="#A6C9D4"/>
<path opacity="0.11" d="M635.242 323.049C635.445 323.049 635.612 323.213 635.615 323.415C635.619 323.618 635.457 323.782 635.255 323.781C635.052 323.781 634.885 323.617 634.881 323.415C634.878 323.212 635.04 323.049 635.242 323.049Z" fill="#A6C9D4"/>
<path opacity="0.3" d="M585.446 321.64C585.649 321.641 585.816 321.805 585.819 322.007C585.823 322.209 585.661 322.373 585.459 322.373C585.256 322.373 585.089 322.209 585.086 322.007C585.082 321.804 585.244 321.64 585.446 321.64Z" fill="#A6C9D4"/>
<path opacity="0.11" d="M597.109 327.57C597.312 327.57 597.479 327.734 597.482 327.937C597.486 328.139 597.324 328.303 597.122 328.303C596.919 328.303 596.752 328.139 596.749 327.936C596.745 327.734 596.907 327.57 597.109 327.57Z" fill="#A6C9D4"/>
<path d="M597.224 334.283C597.426 334.283 597.593 334.447 597.597 334.65C597.6 334.852 597.439 335.016 597.236 335.016C597.033 335.016 596.866 334.852 596.863 334.649C596.859 334.447 597.021 334.283 597.224 334.283Z" fill="#A6C9D4"/>
<path d="M583.35 313.543C583.553 313.543 583.72 313.707 583.724 313.909C583.727 314.112 583.566 314.276 583.363 314.276C583.16 314.275 582.993 314.111 582.99 313.909C582.986 313.707 583.148 313.543 583.35 313.543Z" fill="#A6C9D4"/>
<path d="M648.344 309.629C648.546 309.629 648.713 309.793 648.717 309.995C648.72 310.198 648.559 310.362 648.356 310.362C648.154 310.361 647.986 310.197 647.983 309.995C647.98 309.793 648.141 309.629 648.344 309.629Z" fill="#A6C9D4"/>
<path d="M593.254 353.165C593.058 353.112 592.94 352.911 592.989 352.714C593.038 352.517 593.236 352.401 593.431 352.453C593.627 352.506 593.745 352.708 593.697 352.905C593.648 353.101 593.449 353.218 593.254 353.165Z" fill="#A6C9D4"/>
<path d="M606.75 328.328C606.952 328.328 607.12 328.492 607.123 328.695C607.126 328.897 606.965 329.061 606.762 329.061C606.56 329.061 606.393 328.896 606.389 328.694C606.386 328.492 606.547 328.328 606.75 328.328Z" fill="#A6C9D4"/>
<path d="M553.405 315.701C553.608 315.701 553.775 315.865 553.778 316.068C553.782 316.27 553.62 316.434 553.418 316.434C553.215 316.434 553.048 316.27 553.045 316.067C553.041 315.865 553.203 315.701 553.405 315.701Z" fill="#A6C9D4"/>
<path d="M602.644 307.234C602.847 307.234 603.014 307.398 603.017 307.601C603.021 307.803 602.859 307.967 602.657 307.967C602.454 307.967 602.287 307.803 602.284 307.6C602.28 307.398 602.442 307.234 602.644 307.234Z" fill="#A6C9D4"/>
<path d="M654.802 320.691C655.004 320.691 655.171 320.855 655.175 321.058C655.178 321.26 655.017 321.424 654.814 321.424C654.611 321.424 654.444 321.26 654.441 321.057C654.438 320.855 654.599 320.691 654.802 320.691Z" fill="#A6C9D4"/>
<path d="M589.829 340.845C589.634 340.792 589.515 340.59 589.564 340.394C589.613 340.197 589.811 340.081 590.006 340.133C590.202 340.186 590.321 340.388 590.272 340.584C590.223 340.781 590.025 340.897 589.829 340.845Z" fill="#A6C9D4"/>
<path d="M659.688 331.554C659.891 331.555 660.058 331.719 660.061 331.921C660.065 332.123 659.903 332.287 659.701 332.287C659.498 332.287 659.331 332.123 659.328 331.921C659.324 331.718 659.486 331.554 659.688 331.554Z" fill="#A6C9D4"/>
<path d="M587.878 329.128C587.682 329.075 587.564 328.873 587.613 328.677C587.662 328.48 587.86 328.364 588.055 328.416C588.251 328.469 588.37 328.671 588.321 328.868C588.272 329.064 588.074 329.181 587.878 329.128Z" fill="#A6C9D4"/>
<path opacity="0.3" d="M613.293 334.295C613.495 334.295 613.662 334.459 613.666 334.661C613.669 334.864 613.508 335.028 613.305 335.028C613.103 335.027 612.936 334.863 612.932 334.661C612.929 334.459 613.09 334.295 613.293 334.295Z" fill="#A6C9D4"/>
<path d="M605.853 353.383C606.056 353.383 606.223 353.547 606.226 353.749C606.23 353.952 606.068 354.116 605.866 354.115C605.663 354.115 605.496 353.951 605.493 353.749C605.489 353.546 605.651 353.382 605.853 353.383Z" fill="#A6C9D4"/>
<path d="M623.405 329.758C623.608 329.758 623.775 329.922 623.778 330.124C623.782 330.327 623.62 330.491 623.418 330.49C623.215 330.49 623.048 330.326 623.045 330.124C623.041 329.921 623.203 329.757 623.405 329.758Z" fill="#A6C9D4"/>
<path opacity="0.3" d="M632.945 337.66C633.148 337.66 633.315 337.824 633.318 338.027C633.322 338.229 633.16 338.393 632.958 338.393C632.755 338.393 632.588 338.229 632.585 338.026C632.581 337.824 632.743 337.66 632.945 337.66Z" fill="#A6C9D4"/>
<path opacity="0.3" d="M652.109 323.652C652.312 323.652 652.479 323.816 652.482 324.019C652.486 324.221 652.324 324.385 652.122 324.385C651.919 324.385 651.752 324.221 651.749 324.018C651.745 323.816 651.907 323.652 652.109 323.652Z" fill="#A6C9D4"/>
<path opacity="0.3" d="M692.109 303.652C692.312 303.652 692.479 303.816 692.482 304.019C692.486 304.221 692.324 304.385 692.122 304.385C691.919 304.385 691.752 304.221 691.749 304.018C691.745 303.816 691.907 303.652 692.109 303.652Z" fill="#A6C9D4"/>
<path opacity="0.3" d="M593.202 338.702C593.007 338.65 592.888 338.448 592.937 338.251C592.986 338.055 593.184 337.938 593.379 337.991C593.575 338.043 593.694 338.245 593.645 338.442C593.596 338.638 593.398 338.755 593.202 338.702Z" fill="#A6C9D4"/>
<path opacity="0.3" d="M629.175 323.246C629.377 323.246 629.544 323.41 629.548 323.612C629.551 323.815 629.39 323.979 629.187 323.979C628.985 323.979 628.818 323.814 628.814 323.612C628.811 323.41 628.972 323.246 629.175 323.246Z" fill="#A6C9D4"/>
<path opacity="0.11" d="M644.176 329.57C644.378 329.57 644.545 329.734 644.549 329.937C644.552 330.139 644.391 330.303 644.188 330.303C643.986 330.303 643.819 330.139 643.815 329.936C643.812 329.734 643.973 329.57 644.176 329.57Z" fill="#A6C9D4"/>
<path opacity="0.11" d="M672.22 298.25C672.422 298.25 672.589 298.414 672.593 298.616C672.596 298.819 672.435 298.983 672.232 298.983C672.029 298.983 671.862 298.818 671.859 298.616C671.856 298.414 672.017 298.25 672.22 298.25Z" fill="#A6C9D4"/>
<path opacity="0.11" d="M614.426 308.981C614.309 308.95 614.238 308.828 614.267 308.71C614.296 308.592 614.415 308.522 614.533 308.554C614.65 308.586 614.721 308.707 614.692 308.825C614.663 308.943 614.544 309.013 614.426 308.981Z" fill="#A6C9D4"/>
<path d="M632.55 293.883C632.752 293.883 632.919 294.047 632.923 294.249C632.926 294.452 632.765 294.616 632.562 294.615C632.36 294.615 632.193 294.451 632.189 294.249C632.186 294.046 632.347 293.882 632.55 293.883Z" fill="#A6C9D4"/>
<path d="M612.528 310.913C612.41 310.881 612.339 310.76 612.368 310.642C612.398 310.524 612.517 310.454 612.634 310.486C612.752 310.517 612.823 310.639 612.794 310.757C612.764 310.875 612.645 310.945 612.528 310.913Z" fill="#A6C9D4"/>
<path d="M663.438 300.42C663.641 300.42 663.808 300.584 663.811 300.786C663.815 300.989 663.653 301.153 663.451 301.153C663.248 301.152 663.081 300.988 663.078 300.786C663.074 300.584 663.236 300.42 663.438 300.42Z" fill="#A6C9D4"/>
<path d="M623.507 309.19C623.39 309.159 623.319 309.037 623.348 308.919C623.377 308.801 623.496 308.731 623.614 308.763C623.731 308.795 623.802 308.916 623.773 309.034C623.744 309.152 623.625 309.222 623.507 309.19Z" fill="#A6C9D4"/>
<path opacity="0.11" d="M653.561 295.873C653.764 295.873 653.931 296.037 653.934 296.239C653.938 296.442 653.776 296.606 653.574 296.606C653.371 296.606 653.204 296.441 653.201 296.239C653.197 296.037 653.359 295.873 653.561 295.873Z" fill="#A6C9D4"/>
<path opacity="0.11" d="M631.921 316.134C631.804 316.102 631.733 315.981 631.762 315.863C631.791 315.745 631.91 315.675 632.028 315.706C632.145 315.738 632.216 315.859 632.187 315.977C632.158 316.095 632.039 316.165 631.921 316.134Z" fill="#A6C9D4"/>
<path d="M650.104 299.82C650.307 299.82 650.474 299.984 650.477 300.187C650.481 300.389 650.319 300.553 650.117 300.553C649.914 300.553 649.747 300.389 649.744 300.186C649.74 299.984 649.902 299.82 650.104 299.82Z" fill="#A6C9D4"/>
<path d="M636.293 313.241C636.176 313.209 636.105 313.088 636.134 312.97C636.163 312.852 636.282 312.782 636.4 312.814C636.517 312.845 636.588 312.967 636.559 313.085C636.53 313.203 636.411 313.273 636.293 313.241Z" fill="#A6C9D4"/>
<path d="M606.518 295.058C606.721 295.058 606.888 295.223 606.891 295.425C606.895 295.627 606.733 295.791 606.531 295.791C606.328 295.791 606.161 295.627 606.158 295.425C606.154 295.222 606.316 295.058 606.518 295.058Z" fill="#A6C9D4"/>
<path opacity="0.11" d="M595.258 301.174C595.46 301.174 595.627 301.338 595.631 301.54C595.634 301.743 595.473 301.907 595.27 301.906C595.068 301.906 594.901 301.742 594.897 301.54C594.894 301.337 595.055 301.174 595.258 301.174Z" fill="#A6C9D4"/>
<path opacity="0.11" d="M621.258 299.174C621.46 299.174 621.627 299.338 621.631 299.54C621.634 299.743 621.473 299.907 621.27 299.906C621.068 299.906 620.901 299.742 620.897 299.54C620.894 299.337 621.055 299.174 621.258 299.174Z" fill="#A6C9D4"/>
<path opacity="0.11" d="M620.258 283.174C620.46 283.174 620.627 283.338 620.631 283.54C620.634 283.743 620.473 283.907 620.27 283.906C620.068 283.906 619.901 283.742 619.897 283.54C619.894 283.337 620.055 283.174 620.258 283.174Z" fill="#A6C9D4"/>
<path opacity="0.11" d="M601.522 289.328C601.725 289.328 601.892 289.492 601.895 289.695C601.899 289.897 601.737 290.061 601.535 290.061C601.332 290.061 601.165 289.896 601.162 289.694C601.158 289.492 601.32 289.328 601.522 289.328Z" fill="#A6C9D4"/>
<path d="M531.042 347.37C530.847 347.318 530.728 347.116 530.777 346.919C530.826 346.723 531.024 346.606 531.219 346.659C531.415 346.711 531.534 346.913 531.485 347.11C531.436 347.306 531.238 347.423 531.042 347.37Z" fill="#A6C9D4"/>
<path opacity="0.3" d="M574.212 349.248C574.414 349.248 574.581 349.412 574.585 349.614C574.588 349.817 574.427 349.981 574.224 349.981C574.022 349.981 573.855 349.816 573.851 349.614C573.848 349.412 574.009 349.248 574.212 349.248Z" fill="#A6C9D4"/>
<path opacity="0.3" d="M603.243 373.493C603.048 373.441 602.929 373.239 602.978 373.042C603.027 372.846 603.225 372.729 603.42 372.782C603.616 372.834 603.735 373.036 603.686 373.233C603.637 373.429 603.439 373.546 603.243 373.493Z" fill="#A6C9D4"/>
<path opacity="0.11" d="M588.978 335.242C589.181 335.242 589.348 335.406 589.351 335.609C589.355 335.811 589.193 335.975 588.991 335.975C588.788 335.975 588.621 335.811 588.618 335.608C588.614 335.406 588.776 335.242 588.978 335.242Z" fill="#A6C9D4"/>
<path opacity="0.3" d="M635.638 342.453C635.84 342.453 636.007 342.617 636.011 342.82C636.014 343.022 635.853 343.186 635.65 343.186C635.447 343.186 635.28 343.021 635.277 342.819C635.274 342.617 635.435 342.453 635.638 342.453Z" fill="#A6C9D4"/>
<path opacity="0.3" d="M548.448 388.672C548.369 388.651 548.322 388.57 548.341 388.492C548.361 388.413 548.44 388.367 548.518 388.388C548.597 388.409 548.644 388.49 548.625 388.568C548.605 388.647 548.526 388.693 548.448 388.672Z" fill="#A6C9D4"/>
<path opacity="0.3" d="M557.437 408.797C557.359 408.776 557.311 408.695 557.331 408.617C557.35 408.538 557.429 408.492 557.508 408.513C557.586 408.534 557.634 408.615 557.614 408.693C557.594 408.772 557.515 408.818 557.437 408.797Z" fill="#A6C9D4"/>
<path d="M565.664 331.4C565.745 331.4 565.812 331.466 565.813 331.547C565.815 331.628 565.75 331.693 565.669 331.693C565.588 331.693 565.521 331.628 565.52 331.547C565.519 331.466 565.583 331.4 565.664 331.4Z" fill="#A6C9D4"/>
<path d="M549.215 394.913C549.137 394.892 549.089 394.811 549.109 394.732C549.128 394.653 549.208 394.607 549.286 394.628C549.364 394.649 549.412 394.73 549.392 394.808C549.373 394.887 549.293 394.934 549.215 394.913Z" fill="#A6C9D4"/>
<path d="M585.43 368.967C585.391 368.957 585.367 368.916 585.377 368.877C585.387 368.837 585.426 368.814 585.465 368.825C585.504 368.835 585.528 368.876 585.518 368.915C585.509 368.954 585.469 368.978 585.43 368.967Z" fill="#A6C9D4"/>
<path opacity="0.11" d="M550.72 331.986C550.922 331.986 551.089 332.15 551.093 332.353C551.096 332.555 550.935 332.719 550.732 332.719C550.529 332.719 550.362 332.555 550.359 332.352C550.356 332.15 550.517 331.986 550.72 331.986Z" fill="#A6C9D4"/>
<path opacity="0.11" d="M595.254 323.519C595.456 323.519 595.623 323.684 595.627 323.886C595.63 324.088 595.469 324.252 595.266 324.252C595.064 324.252 594.897 324.088 594.893 323.886C594.89 323.683 595.051 323.519 595.254 323.519Z" fill="#A6C9D4"/>
<path opacity="0.11" d="M584.348 342.452C584.231 342.42 584.159 342.299 584.189 342.181C584.218 342.063 584.337 341.993 584.454 342.025C584.572 342.056 584.643 342.178 584.614 342.296C584.584 342.414 584.465 342.484 584.348 342.452Z" fill="#A6C9D4"/>
<path opacity="0.3" d="M562.576 326.269C562.779 326.269 562.946 326.434 562.949 326.636C562.953 326.838 562.791 327.002 562.589 327.002C562.386 327.002 562.219 326.838 562.215 326.636C562.212 326.433 562.373 326.269 562.576 326.269Z" fill="#A6C9D4"/>
<path d="M607.827 336.953C608.03 336.953 608.197 337.117 608.2 337.32C608.204 337.522 608.042 337.686 607.839 337.686C607.637 337.686 607.47 337.522 607.466 337.319C607.463 337.117 607.624 336.953 607.827 336.953Z" fill="#A6C9D4"/>
<path d="M575.596 326.257C575.479 326.225 575.407 326.104 575.437 325.986C575.466 325.868 575.585 325.798 575.702 325.829C575.82 325.861 575.891 325.982 575.862 326.1C575.832 326.218 575.714 326.288 575.596 326.257Z" fill="#A6C9D4"/>
<path d="M594.192 318.779C594.395 318.779 594.562 318.943 594.565 319.146C594.569 319.348 594.407 319.512 594.205 319.512C594.002 319.512 593.835 319.348 593.832 319.145C593.828 318.943 593.99 318.779 594.192 318.779Z" fill="#A6C9D4"/>
<path opacity="0.3" d="M568.571 351.974C568.652 351.974 568.719 352.04 568.721 352.121C568.722 352.202 568.657 352.268 568.576 352.268C568.495 352.268 568.429 352.202 568.427 352.121C568.426 352.04 568.49 351.974 568.571 351.974Z" fill="#A6C9D4"/>
<path opacity="0.3" d="M544.825 349.986C544.906 349.986 544.973 350.052 544.975 350.133C544.976 350.214 544.911 350.279 544.83 350.279C544.749 350.279 544.682 350.214 544.681 350.133C544.68 350.052 544.744 349.986 544.825 349.986Z" fill="#A6C9D4"/>
<path opacity="0.3" d="M539.367 363.213C539.448 363.213 539.515 363.278 539.517 363.359C539.518 363.44 539.453 363.506 539.372 363.506C539.291 363.506 539.224 363.44 539.223 363.359C539.222 363.278 539.286 363.212 539.367 363.213Z" fill="#A6C9D4"/>
<path d="M541.806 345.246C541.887 345.246 541.954 345.311 541.955 345.393C541.956 345.474 541.892 345.539 541.811 345.539C541.73 345.539 541.663 345.473 541.662 345.392C541.66 345.311 541.725 345.246 541.806 345.246Z" fill="#A6C9D4"/>
<path d="M515.821 349.773C515.902 349.773 515.969 349.839 515.971 349.92C515.972 350.001 515.907 350.067 515.826 350.066C515.745 350.066 515.679 350.001 515.677 349.92C515.676 349.839 515.74 349.773 515.821 349.773Z" fill="#A6C9D4"/>
<path d="M602.669 311.521C602.75 311.521 602.817 311.587 602.818 311.668C602.82 311.749 602.755 311.815 602.674 311.815C602.593 311.814 602.526 311.749 602.525 311.668C602.523 311.587 602.588 311.521 602.669 311.521Z" fill="#A6C9D4"/>
<path opacity="0.3" d="M535.273 335.886C535.354 335.886 535.42 335.952 535.422 336.033C535.423 336.114 535.359 336.18 535.278 336.18C535.197 336.18 535.13 336.114 535.128 336.033C535.127 335.952 535.192 335.886 535.273 335.886Z" fill="#A6C9D4"/>
<path opacity="0.3" d="M519.58 346.738C519.661 346.738 519.728 346.804 519.729 346.885C519.731 346.966 519.666 347.031 519.585 347.031C519.504 347.031 519.437 346.966 519.436 346.885C519.435 346.804 519.499 346.738 519.58 346.738Z" fill="#A6C9D4"/>
<path opacity="0.3" d="M547.718 353.466C547.799 353.466 547.866 353.532 547.867 353.613C547.869 353.694 547.804 353.76 547.723 353.76C547.642 353.76 547.575 353.694 547.574 353.613C547.572 353.532 547.637 353.466 547.718 353.466Z" fill="#A6C9D4"/>
<path opacity="0.11" d="M542.494 357.414C542.575 357.414 542.642 357.479 542.644 357.56C542.645 357.642 542.58 357.707 542.499 357.707C542.418 357.707 542.351 357.641 542.35 357.56C542.349 357.479 542.413 357.414 542.494 357.414Z" fill="#A6C9D4"/>
<path opacity="0.3" d="M554.98 326.668C555.021 326.668 555.054 326.701 555.055 326.741C555.055 326.782 555.023 326.815 554.983 326.814C554.942 326.814 554.909 326.782 554.908 326.741C554.907 326.701 554.94 326.668 554.98 326.668Z" fill="#A6C9D4"/>
<path d="M567.324 326.674C567.364 326.674 567.398 326.707 567.398 326.747C567.399 326.788 567.367 326.82 567.326 326.82C567.286 326.82 567.252 326.787 567.252 326.747C567.251 326.706 567.283 326.674 567.324 326.674Z" fill="#A6C9D4"/>
<g opacity="0.2" filter="url(#filter0_f_281_167077)">
<path d="M1676.88 1333.32C1676.88 770.991 1188.19 315.137 585.353 315.137C-17.4805 315.137 -506.174 770.991 -506.174 1333.32" stroke="url(#paint0_linear_281_167077)" stroke-width="1.46487"/>
</g>
<g opacity="0.2" filter="url(#filter1_f_281_167077)">
<path d="M1676.88 1358.53C1676.88 796.204 1188.19 340.35 585.353 340.35C-17.4805 340.35 -506.174 796.204 -506.174 1358.53" stroke="url(#paint1_linear_281_167077)" stroke-width="1.46487"/>
</g>
<g opacity="0.2" filter="url(#filter2_f_281_167077)">
<path d="M1665.54 1358.53C1665.54 802.045 1181.92 350.926 585.353 350.926C-11.2188 350.926 -494.836 802.045 -494.836 1358.53" stroke="url(#paint2_linear_281_167077)" stroke-width="14"/>
</g>
<g filter="url(#filter3_f_281_167077)">
<path d="M1598.76 1310.46C1598.76 784.288 1145.04 357.744 585.354 357.744C25.6648 357.744 -428.053 784.288 -428.053 1310.46" stroke="url(#paint3_linear_281_167077)" stroke-width="1.46487"/>
</g>
<path d="M585.354 357.391C25.6648 357.391 -428.053 777.458 -428.053 1295.64H585.354H1598.76C1598.76 777.458 1145.04 357.391 585.354 357.391Z" fill="#0B0E14" stroke="url(#paint4_linear_281_167077)" stroke-width="1.46487"/>
</g>
<defs>
<filter id="filter0_f_281_167077" x="-544.993" y="276.318" width="2260.69" height="1095.09" filterUnits="userSpaceOnUse" color-interpolation-filters="sRGB">
<feFlood flood-opacity="0" result="BackgroundImageFix"/>
<feBlend mode="normal" in="SourceGraphic" in2="BackgroundImageFix" result="shape"/>
<feGaussianBlur stdDeviation="19.0433" result="effect1_foregroundBlur_281_167077"/>
</filter>
<filter id="filter1_f_281_167077" x="-508.371" y="338.152" width="2187.45" height="1021.84" filterUnits="userSpaceOnUse" color-interpolation-filters="sRGB">
<feFlood flood-opacity="0" result="BackgroundImageFix"/>
<feBlend mode="normal" in="SourceGraphic" in2="BackgroundImageFix" result="shape"/>
<feGaussianBlur stdDeviation="0.732435" result="effect1_foregroundBlur_281_167077"/>
</filter>
<filter id="filter2_f_281_167077" x="-511.296" y="334.466" width="2193.3" height="1033.52" filterUnits="userSpaceOnUse" color-interpolation-filters="sRGB">
<feFlood flood-opacity="0" result="BackgroundImageFix"/>
<feBlend mode="normal" in="SourceGraphic" in2="BackgroundImageFix" result="shape"/>
<feGaussianBlur stdDeviation="4.73" result="effect1_foregroundBlur_281_167077"/>
</filter>
<filter id="filter3_f_281_167077" x="-430.25" y="355.547" width="2031.21" height="956.375" filterUnits="userSpaceOnUse" color-interpolation-filters="sRGB">
<feFlood flood-opacity="0" result="BackgroundImageFix"/>
<feBlend mode="normal" in="SourceGraphic" in2="BackgroundImageFix" result="shape"/>
<feGaussianBlur stdDeviation="0.732435" result="effect1_foregroundBlur_281_167077"/>
</filter>
<linearGradient id="paint0_linear_281_167077" x1="1051.78" y1="315.137" x2="91.8139" y2="315.137" gradientUnits="userSpaceOnUse">
<stop stop-color="#1CF7C3" stop-opacity="0"/>
<stop offset="0.510417" stop-color="#1CF7C3"/>
<stop offset="1" stop-color="#1CF7C3" stop-opacity="0"/>
</linearGradient>
<linearGradient id="paint1_linear_281_167077" x1="1051.78" y1="340.35" x2="91.8139" y2="340.35" gradientUnits="userSpaceOnUse">
<stop stop-color="#1CF7C3" stop-opacity="0"/>
<stop offset="0.510417" stop-color="#1CF7C3"/>
<stop offset="1" stop-color="#1CF7C3" stop-opacity="0"/>
</linearGradient>
<linearGradient id="paint2_linear_281_167077" x1="1046.94" y1="350.926" x2="96.9403" y2="350.926" gradientUnits="userSpaceOnUse">
<stop stop-color="#1CF7C3" stop-opacity="0"/>
<stop offset="0.510417" stop-color="#1CF7C3"/>
<stop offset="1" stop-color="#1CF7C3" stop-opacity="0"/>
</linearGradient>
<linearGradient id="paint3_linear_281_167077" x1="1018.4" y1="357.744" x2="127.137" y2="357.744" gradientUnits="userSpaceOnUse">
<stop stop-color="#1CF7C3" stop-opacity="0"/>
<stop offset="0.510417" stop-color="#1CF7C3"/>
<stop offset="1" stop-color="#1CF7C3" stop-opacity="0"/>
</linearGradient>
<linearGradient id="paint4_linear_281_167077" x1="1018.4" y1="357.391" x2="127.137" y2="357.391" gradientUnits="userSpaceOnUse">
<stop stop-color="#1CF7C3" stop-opacity="0"/>
<stop offset="0.510417" stop-color="#1CF7C3"/>
<stop offset="1" stop-color="#1CF7C3" stop-opacity="0"/>
</linearGradient>
<clipPath id="clip0_281_167077">
<rect width="1153" height="524" fill="white"/>
</clipPath>
</defs>
</svg>
